<?xml version="1.0" encoding="UTF-8" standalone="no"?>
<!DOCTYPE svg PUBLIC "-//W3C//DTD SVG 1.1//EN"
 "http://www.w3.org/Graphics/SVG/1.1/DTD/svg11.dtd">
<!-- Generated by graphviz version 2.38.0 (20140413.2041)
 -->
<!-- Title: G Pages: 1 -->
<svg width="316pt" height="260pt"
 viewBox="0.00 0.00 316.26 260.00" xmlns="http://www.w3.org/2000/svg" xmlns:xlink="http://www.w3.org/1999/xlink">
<g id="graph0" class="graph" transform="scale(1 1) rotate(0) translate(4 256)">
<title>G</title>
<polygon fill="white" stroke="none" points="-4,4 -4,-256 312.264,-256 312.264,4 -4,4"/>
<!-- main -->
<g id="node1" class="node"><title>main</title>
<ellipse fill="none" stroke="black" cx="162.774" cy="-234" rx="30.1958" ry="18"/>
<text text-anchor="middle" x="162.774" y="-229.8" font-family="Times,serif" font-size="14.00">main</text>
</g>
<!-- parse -->
<g id="node2" class="node"><title>parse</title>
<ellipse fill="none" stroke="black" cx="117.774" cy="-162" rx="31.3179" ry="18"/>
<text text-anchor="middle" x="117.774" y="-157.8" font-family="Times,serif" font-size="14.00">parse</text>
</g>
<!-- main&#45;&gt;parse -->
<g id="edge1" class="edge"><title>main&#45;&gt;parse</title>
<path fill="none" stroke="black" d="M152.337,-216.765C146.771,-208.106 139.806,-197.273 133.591,-187.604"/>
<polygon fill="black" stroke="black" points="136.506,-185.666 128.154,-179.147 130.618,-189.452 136.506,-185.666"/>
</g>
<!-- init -->
<g id="node4" class="node"><title>init</title>
<ellipse fill="none" stroke="black" cx="58.7737" cy="-90" rx="27" ry="18"/>
<text text-anchor="middle" x="58.7737" y="-85.8" font-family="Times,serif" font-size="14.00">init</text>
</g>
<!-- main&#45;&gt;init -->
<g id="edge3" class="edge"><title>main&#45;&gt;init</title>
<path fill="none" stroke="black" d="M137.652,-223.739C118.303,-215.297 92.4561,-200.927 77.7737,-180 65.1229,-161.968 60.6161,-137.181 59.135,-118.344"/>
<polygon fill="black" stroke="black" points="62.6268,-118.097 58.5822,-108.305 55.6374,-118.482 62.6268,-118.097"/>
</g>
<!-- cleanup -->
<g id="node5" class="node"><title>cleanup</title>
<ellipse fill="none" stroke="black" cx="207.774" cy="-162" rx="41.1316" ry="18"/>
<text text-anchor="middle" x="207.774" y="-157.8" font-family="Times,serif" font-size="14.00">cleanup</text>
</g>
<!-- main&#45;&gt;cleanup -->
<g id="edge4" class="edge"><title>main&#45;&gt;cleanup</title>
<path fill="none" stroke="black" d="M173.211,-216.765C178.641,-208.317 185.403,-197.799 191.502,-188.312"/>
<polygon fill="black" stroke="black" points="194.617,-189.938 197.081,-179.633 188.729,-186.153 194.617,-189.938"/>
</g>
<!-- printf -->
<g id="node7" class="node"><title>printf</title>
<ellipse fill="none" stroke="black" cx="275.774" cy="-18" rx="32.4808" ry="18"/>
<text text-anchor="middle" x="275.774" y="-13.8" font-family="Times,serif" font-size="14.00">printf</text>
</g>
<!-- main&#45;&gt;printf -->
<g id="edge8" class="edge"><title>main&#45;&gt;printf</title>
<path fill="none" stroke="black" d="M189.642,-225.552C211.772,-217.922 241.987,-203.75 257.774,-180 284.606,-139.63 283.468,-80.6451 279.859,-46.4066"/>
<polygon fill="black" stroke="black" points="283.302,-45.725 278.633,-36.2148 276.353,-46.5613 283.302,-45.725"/>
</g>
<!-- execute -->
<g id="node3" class="node"><title>execute</title>
<ellipse fill="none" stroke="black" cx="161.774" cy="-90" rx="40.548" ry="18"/>
<text text-anchor="middle" x="161.774" y="-85.8" font-family="Times,serif" font-size="14.00">execute</text>
</g>
<!-- parse&#45;&gt;execute -->
<g id="edge2" class="edge"><title>parse&#45;&gt;execute</title>
<path fill="none" stroke="black" d="M127.979,-144.765C133.289,-136.317 139.9,-125.799 145.863,-116.312"/>
<polygon fill="black" stroke="black" points="148.96,-117.962 151.318,-107.633 143.033,-114.237 148.96,-117.962"/>
</g>
<!-- make_string -->
<g id="node6" class="node"><title>make_string</title>
<ellipse fill="none" stroke="black" cx="58.7737" cy="-18" rx="58.5482" ry="18"/>
<text text-anchor="middle" x="58.7737" y="-13.8" font-family="Times,serif" font-size="14.00">make_string</text>
</g>
<!-- execute&#45;&gt;make_string -->
<g id="edge5" class="edge"><title>execute&#45;&gt;make_string</title>
<path fill="none" stroke="black" d="M140.432,-74.496C126.014,-64.6973 106.727,-51.5893 90.517,-40.5732"/>
<polygon fill="black" stroke="black" points="92.117,-37.4287 81.8789,-34.7026 88.1823,-43.2183 92.117,-37.4287"/>
</g>
<!-- execute&#45;&gt;printf -->
<g id="edge6" class="edge"><title>execute&#45;&gt;printf</title>
<path fill="none" stroke="black" d="M184.569,-75.0027C202.183,-64.1875 226.71,-49.1266 245.894,-37.3471"/>
<polygon fill="black" stroke="black" points="247.867,-40.2426 254.558,-32.0274 244.205,-34.2774 247.867,-40.2426"/>
</g>
<!-- compare -->
<g id="node8" class="node"><title>compare</title>
<ellipse fill="none" stroke="black" cx="179.774" cy="-18" rx="44.0622" ry="18"/>
<text text-anchor="middle" x="179.774" y="-13.8" font-family="Times,serif" font-size="14.00">compare</text>
</g>
<!-- execute&#45;&gt;compare -->
<g id="edge9" class="edge"><title>execute&#45;&gt;compare</title>
<path fill="none" stroke="black" d="M166.131,-72.055C168.135,-64.2609 170.562,-54.8219 172.811,-46.0789"/>
<polygon fill="black" stroke="black" points="176.231,-46.8319 175.331,-36.2753 169.451,-45.0886 176.231,-46.8319"/>
</g>
<!-- init&#45;&gt;make_string -->
<g id="edge7" class="edge"><title>init&#45;&gt;make_string</title>
<path fill="none" stroke="black" d="M58.7737,-71.6966C58.7737,-63.9827 58.7737,-54.7125 58.7737,-46.1124"/>
<polygon fill="black" stroke="black" points="62.2738,-46.1043 58.7737,-36.1043 55.2738,-46.1044 62.2738,-46.1043"/>
</g>
</g>
</svg>
