<svg height="256.07199014205946" version="1.1" width="472.13181750583635" xmlns="http://www.w3.org/2000/svg" xmlns:xlink="http://www.w3.org/1999/xlink" style="overflow: hidden; position: relative;"><desc style="-webkit-tap-highlight-color: rgba(0, 0, 0, 0);">Created with Raphaël 2.1.4</desc><defs style="-webkit-tap-highlight-color: rgba(0, 0, 0, 0);"><path stroke-linecap="round" d="M5,0 0,2.5 5,5z" id="raphael-marker-block" style="-webkit-tap-highlight-color: rgba(0, 0, 0, 0);"></path><marker id="raphael-marker-endblock55-obj21" markerHeight="5" markerWidth="5" orient="auto" refX="2.5" refY="2.5" style="-webkit-tap-highlight-color: rgba(0, 0, 0, 0);"><use xmlns:xlink="http://www.w3.org/1999/xlink" xlink:href="#raphael-marker-block" transform="rotate(180 2.5 2.5) scale(1,1)" stroke-width="1.0000" fill="#000" stroke="none" style="-webkit-tap-highlight-color: rgba(0, 0, 0, 0);"></use></marker><marker id="raphael-marker-endblock55-obj27" markerHeight="5" markerWidth="5" orient="auto" refX="2.5" refY="2.5" style="-webkit-tap-highlight-color: rgba(0, 0, 0, 0);"><use xmlns:xlink="http://www.w3.org/1999/xlink" xlink:href="#raphael-marker-block" transform="rotate(180 2.5 2.5) scale(1,1)" stroke-width="1.0000" fill="#000" stroke="none" style="-webkit-tap-highlight-color: rgba(0, 0, 0, 0);"></use></marker></defs><path fill="#ffffff" stroke="#000000" d="M10,20C34.22472549785633,22.289892708509228,18.196918064718684,17.710107291490772,67.24731771273073,20C68.60643688208854,32.019165591473275,65.88819854337292,39.476345128464715,67.24731771273073,53.97797923394532C37.58626471762279,51.68808652543609,27.94823423370503,56.26787194245455,10,53.97797923394532C8.640880830642187,51.250783239017004,11.359119169357813,45.63364259066964,10,20" stroke-width="2" style="-webkit-tap-highlight-color: rgba(0, 0, 0, 0);"></path><rect x="20" y="30.02731060462698" width="37.24731771273073" height="13.92335802469135" rx="0" ry="0" fill="#ffffff" stroke="none" style="-webkit-tap-highlight-color: rgba(0, 0, 0, 0);"></rect><path fill="#000000" stroke="none" d="M24.063653022418116,40.116199493515865C23.041430800195897,39.67175504907142,22.33031968908478,41.80508838240476,21.752541911307006,42.782866160182536C21.39698635575145,43.0495328268492,21.39698635575145,43.0495328268492,20.77476413352923,43.58286616018253C19.79698635575145,43.27175504907143,19.752541911307006,41.93842171573809,20.596986355751447,41.405088382404756C20.908097466862564,41.0495328268492,21.08587524464034,40.73842171573809,21.26365302241812,40.38286616018254C21.26365302241812,40.38286616018254,21.219208577973674,40.42731060462698,21.219208577973674,40.42731060462698C20.596986355751447,39.27175504907143,22.241430800195893,39.13842171573809,22.596986355751447,38.6495328268492C22.64143080019589,38.60508838240476,23.26365302241812,37.36064393796032,23.752541911307006,37.0495328268492C24.50809746686256,35.67175504907142,25.48587524464034,34.47175504907142,26.152541911307004,32.96064393796031C26.86365302241812,32.07175504907143,27.041430800195897,30.693977271293647,27.974764133529227,30.02731060462698C29.26365302241812,30.2495328268492,29.48587524464034,32.782866160182536,29.974764133529227,34.116199493515865C30.374764133529226,36.96064393796031,30.908097466862564,38.69397727129365,32.152541911307004,41.00508838240476C32.01920857797367,42.116199493515865,30.19698635575145,41.493977271293645,29.752541911307006,41.00508838240476C28.241430800195893,40.471755049071426,25.441430800195896,39.71619949351587,24.063653022418116,40.116199493515865C24.063653022418116,40.116199493515865,24.063653022418116,40.116199493515865,24.063653022418116,40.116199493515865M24.50809746686256,38.471755049071426C25.39698635575145,38.73842171573809,28.063653022418116,38.91619949351587,29.441430800195896,39.22731060462698C29.70809746686256,38.91619949351587,29.26365302241812,38.560643937960315,29.130319689084786,38.160643937960316C28.64143080019589,36.91619949351587,28.73031968908478,34.07175504907143,27.79698635575145,32.96064393796031C27.39698635575145,33.36064393796032,26.95254191130701,34.91619949351587,26.285875244640337,35.405088382404756C25.88587524464034,36.42731060462698,25.08587524464034,37.18286616018254,24.50809746686256,38.471755049071426C24.50809746686256,38.471755049071426,24.50809746686256,38.471755049071426,24.50809746686256,38.471755049071426M35.752541911307006,30.382866160182534C36.685875244640336,30.116199493515868,37.396986355751444,31.40508838240476,37.085875244640334,32.82731060462698C36.64143080019589,35.09397727129365,35.841430800195894,38.82731060462698,35.841430800195894,42.07175504907143C35.841430800195894,42.560643937960315,36.10809746686256,43.67175504907142,35.26365302241811,43.71619949351587C33.97476413352923,43.493977271293645,33.93031968908478,41.58286616018253,34.152541911307004,40.027310604626976C34.152541911307004,40.027310604626976,35.396986355751444,32.160643937960316,35.396986355751444,32.160643937960316C35.13031968908478,31.40508838240476,35.44143080019589,30.871755049071425,35.752541911307006,30.382866160182534C35.752541911307006,30.382866160182534,35.752541911307006,30.382866160182534,35.752541911307006,30.382866160182534M40.10809746686257,34.42731060462698C40.419208577973684,35.22731060462698,40.50809746686257,35.44953282684921,39.885875244640346,36.116199493515865C38.86365302241813,35.8495328268492,38.952541911307016,35.31619949351587,39.39698635575146,34.51619949351587C39.48587524464035,34.51619949351587,39.75254191130701,34.47175504907142,40.10809746686257,34.42731060462698C40.10809746686257,34.42731060462698,40.10809746686257,34.42731060462698,40.10809746686257,34.42731060462698M38.86365302241813,43.405088382404756C38.06365302241812,42.471755049071426,38.50809746686257,40.160643937960316,38.81920857797368,38.69397727129365C39.13031968908479,38.249532826849205,39.70809746686257,38.33842171573809,39.8414308001959,38.96064393796031C39.79698635575146,40.560643937960315,40.15254191130701,42.160643937960316,39.75254191130701,43.58286616018253C39.39698635575146,43.67175504907142,39.39698635575146,43.58286616018253,38.86365302241813,43.405088382404756C38.86365302241813,43.405088382404756,38.86365302241813,43.405088382404756,38.86365302241813,43.405088382404756M46.59698635575144,38.249532826849205C47.88587524464033,37.93842171573809,48.241430800195886,39.538421715738096,47.130319689084786,39.71619949351587C45.93031968908478,39.538421715738096,45.352541911307,39.98286616018254,43.619208577973666,40.82731060462698C43.26365302241811,41.00508838240476,43.0414308001959,41.31619949351587,42.90809746686256,41.80508838240476C44.241430800195886,43.22731060462698,46.952541911306994,41.93842171573809,48.86365302241812,42.29397727129365C49.085875244640334,42.871755049071425,48.50809746686255,43.44953282684921,47.88587524464033,43.13842171573809C45.619208577973666,44.249532826849205,41.708097466862554,44.38286616018253,41.219208577973674,41.80508838240476C41.48587524464034,39.58286616018253,44.28587524464034,38.160643937960316,46.59698635575144,38.249532826849205C46.59698635575144,38.249532826849205,46.59698635575144,38.249532826849205,46.59698635575144,38.249532826849205M49.708097466862554,41.18286616018254C49.708097466862554,38.60508838240476,51.97476413352922,38.027310604626976,54.59698635575144,37.89397727129365C56.06365302241811,37.8495328268492,56.59698635575144,38.60508838240476,57.21920857797366,39.44953282684921C57.26365302241811,40.07175504907143,57.30809746686255,41.18286616018254,56.90809746686256,41.31619949351587C55.841430800195894,41.22731060462698,53.66365302241812,41.89397727129365,52.50809746686255,41.80508838240476C52.41920857797366,41.89397727129365,52.41920857797366,41.93842171573809,52.41920857797366,41.93842171573809C52.41920857797366,42.07175504907143,52.952541911306994,42.29397727129365,54.06365302241811,42.60508838240476C54.996986355751446,42.60508838240476,57.13031968908477,43.00508838240476,55.44143080019589,43.58286616018253C55.04143080019588,44.20508838240475,53.93031968908478,43.8495328268492,52.952541911306994,43.8495328268492C51.752541911307006,43.627310604626985,49.708097466862554,42.60508838240476,49.708097466862554,41.18286616018254C49.708097466862554,41.18286616018254,49.708097466862554,41.18286616018254,49.708097466862554,41.18286616018254M54.996986355751446,39.18286616018254C54.01920857797367,39.27175504907143,51.97476413352922,39.405088382404756,52.10809746686256,40.33842171573809C53.17476413352922,40.249532826849205,55.04143080019588,40.560643937960315,55.619208577973666,40.07175504907143C55.39698635575145,39.493977271293645,55.57476413352923,39.493977271293645,54.996986355751446,39.18286616018254C54.996986355751446,39.18286616018254,54.996986355751446,39.18286616018254,54.996986355751446,39.18286616018254" style="-webkit-tap-highlight-color: rgba(0, 0, 0, 0);"></path><path fill="#ffffff" stroke="#000000" d="M10,202.09401090811414C46.983428235332134,204.38390361662337,50.23050523019228,199.80411819960491,67.24731771273073,202.09401090811414C68.60643688208854,220.13285926841067,65.88819854337292,217.92407775320612,67.24731771273073,236.07199014205946C25.827319657449202,238.3618828505687,46.943199396740134,233.78209743355023,10,236.07199014205946C11.359119169357813,205.35915537414567,8.640880830642187,229.36420596870076,10,202.09401090811414" stroke-width="2" style="-webkit-tap-highlight-color: rgba(0, 0, 0, 0);"></path><rect x="20" y="212.12132151274113" width="37.24731771273073" height="13.923358024691339" rx="0" ry="0" fill="#ffffff" stroke="none" style="-webkit-tap-highlight-color: rgba(0, 0, 0, 0);"></rect><path fill="#000000" stroke="none" d="M24.063653022418116,222.21021040163004C23.041430800195897,221.76576595718558,22.33031968908478,223.89909929051893,21.752541911307006,224.8768770682967C21.39698635575145,225.14354373496337,21.39698635575145,225.14354373496337,20.77476413352923,225.6768770682967C19.79698635575145,225.36576595718557,19.752541911307006,224.03243262385226,20.596986355751447,223.49909929051893C20.908097466862564,223.14354373496337,21.08587524464034,222.83243262385224,21.26365302241812,222.4768770682967C21.26365302241812,222.4768770682967,21.219208577973674,222.52132151274114,21.219208577973674,222.52132151274114C20.596986355751447,221.36576595718557,22.241430800195893,221.23243262385225,22.596986355751447,220.74354373496337C22.64143080019589,220.69909929051892,23.26365302241812,219.45465484607448,23.752541911307006,219.14354373496337C24.50809746686256,217.76576595718558,25.48587524464034,216.5657659571856,26.152541911307004,215.05465484607447C26.86365302241812,214.16576595718558,27.041430800195897,212.78798817940782,27.974764133529227,212.12132151274113C29.26365302241812,212.34354373496336,29.48587524464034,214.8768770682967,29.974764133529227,216.21021040163004C30.374764133529226,219.05465484607447,30.908097466862564,220.78798817940782,32.152541911307004,223.09909929051892C32.01920857797367,224.21021040163004,30.19698635575145,223.5879881794078,29.752541911307006,223.09909929051892C28.241430800195893,222.5657659571856,25.441430800195896,221.81021040163003,24.063653022418116,222.21021040163004C24.063653022418116,222.21021040163004,24.063653022418116,222.21021040163004,24.063653022418116,222.21021040163004M24.50809746686256,220.5657659571856C25.39698635575145,220.83243262385224,28.063653022418116,221.01021040163002,29.441430800195896,221.32132151274115C29.70809746686256,221.01021040163002,29.26365302241812,220.65465484607446,29.130319689084786,220.2546548460745C28.64143080019589,219.01021040163002,28.73031968908478,216.16576595718558,27.79698635575145,215.05465484607447C27.39698635575145,215.45465484607448,26.95254191130701,217.01021040163002,26.285875244640337,217.49909929051893C25.88587524464034,218.52132151274114,25.08587524464034,219.2768770682967,24.50809746686256,220.5657659571856C24.50809746686256,220.5657659571856,24.50809746686256,220.5657659571856,24.50809746686256,220.5657659571856M35.752541911307006,212.4768770682967C36.685875244640336,212.21021040163004,37.396986355751444,213.49909929051893,37.085875244640334,214.92132151274114C36.64143080019589,217.1879881794078,35.841430800195894,220.92132151274114,35.841430800195894,224.16576595718558C35.841430800195894,224.65465484607446,36.10809746686256,225.76576595718558,35.26365302241811,225.81021040163003C33.97476413352923,225.5879881794078,33.93031968908478,223.6768770682967,34.152541911307004,222.12132151274113C34.152541911307004,222.12132151274113,35.396986355751444,214.2546548460745,35.396986355751444,214.2546548460745C35.13031968908478,213.49909929051893,35.44143080019589,212.9657659571856,35.752541911307006,212.4768770682967C35.752541911307006,212.4768770682967,35.752541911307006,212.4768770682967,35.752541911307006,212.4768770682967M40.10809746686257,216.52132151274114C40.419208577973684,217.32132151274115,40.50809746686257,217.54354373496335,39.885875244640346,218.21021040163004C38.86365302241813,217.94354373496336,38.952541911307016,217.41021040163002,39.39698635575146,216.61021040163004C39.48587524464035,216.61021040163004,39.75254191130701,216.5657659571856,40.10809746686257,216.52132151274114C40.10809746686257,216.52132151274114,40.10809746686257,216.52132151274114,40.10809746686257,216.52132151274114M38.86365302241813,225.49909929051893C38.06365302241812,224.5657659571856,38.50809746686257,222.2546548460745,38.81920857797368,220.78798817940782C39.13031968908479,220.34354373496336,39.70809746686257,220.43243262385226,39.8414308001959,221.05465484607447C39.79698635575146,222.65465484607446,40.15254191130701,224.2546548460745,39.75254191130701,225.6768770682967C39.39698635575146,225.76576595718558,39.39698635575146,225.6768770682967,38.86365302241813,225.49909929051893C38.86365302241813,225.49909929051893,38.86365302241813,225.49909929051893,38.86365302241813,225.49909929051893M46.59698635575144,220.34354373496336C47.88587524464033,220.03243262385226,48.241430800195886,221.63243262385225,47.130319689084786,221.81021040163003C45.93031968908478,221.63243262385225,45.352541911307,222.0768770682967,43.619208577973666,222.92132151274114C43.26365302241811,223.09909929051892,43.0414308001959,223.41021040163002,42.90809746686256,223.89909929051893C44.241430800195886,225.32132151274115,46.952541911306994,224.03243262385226,48.86365302241812,224.3879881794078C49.085875244640334,224.9657659571856,48.50809746686255,225.54354373496335,47.88587524464033,225.23243262385225C45.619208577973666,226.34354373496336,41.708097466862554,226.4768770682967,41.219208577973674,223.89909929051893C41.48587524464034,221.6768770682967,44.28587524464034,220.2546548460745,46.59698635575144,220.34354373496336C46.59698635575144,220.34354373496336,46.59698635575144,220.34354373496336,46.59698635575144,220.34354373496336M49.708097466862554,223.2768770682967C49.708097466862554,220.69909929051892,51.97476413352922,220.12132151274113,54.59698635575144,219.9879881794078C56.06365302241811,219.94354373496336,56.59698635575144,220.69909929051892,57.21920857797366,221.54354373496335C57.26365302241811,222.16576595718558,57.30809746686255,223.2768770682967,56.90809746686256,223.41021040163002C55.841430800195894,223.32132151274115,53.66365302241812,223.9879881794078,52.50809746686255,223.89909929051893C52.41920857797366,223.9879881794078,52.41920857797366,224.03243262385226,52.41920857797366,224.03243262385226C52.41920857797366,224.16576595718558,52.952541911306994,224.3879881794078,54.06365302241811,224.69909929051892C54.996986355751446,224.69909929051892,57.13031968908477,225.09909929051892,55.44143080019589,225.6768770682967C55.04143080019588,226.2990992905189,53.93031968908478,225.94354373496336,52.952541911306994,225.94354373496336C51.752541911307006,225.72132151274113,49.708097466862554,224.69909929051892,49.708097466862554,223.2768770682967C49.708097466862554,223.2768770682967,49.708097466862554,223.2768770682967,49.708097466862554,223.2768770682967M54.996986355751446,221.2768770682967C54.01920857797367,221.36576595718557,51.97476413352922,221.49909929051893,52.10809746686256,222.43243262385226C53.17476413352922,222.34354373496336,55.04143080019588,222.65465484607446,55.619208577973666,222.16576595718558C55.39698635575145,221.5879881794078,55.57476413352923,221.5879881794078,54.996986355751446,221.2768770682967C54.996986355751446,221.2768770682967,54.996986355751446,221.2768770682967,54.996986355751446,221.2768770682967" style="-webkit-tap-highlight-color: rgba(0, 0, 0, 0);"></path><path fill="none" stroke="#000000" d="M38.62365885636537,53.97797923394532C32.699017589398615,114.58377897537386,44.54830012333212,148.91411161784563,38.62365885636537,202.09401090811414" stroke-width="2" style="-webkit-tap-highlight-color: rgba(0, 0, 0, 0);"></path><path fill="#ffffff" stroke="#000000" d="M243.53971867312484,20C272.1288348553984,22.206640861999354,268.8635473735324,17.793359138000646,298.70574022310865,20C300.0648593924665,45.93313116279823,297.3466210537508,31.56189541249129,298.70574022310865,53.97797923394532C248.58208102363898,56.18462009594467,259.5657114780907,51.771338371945966,243.53971867312484,53.97797923394532C244.89883784248266,23.189144229676913,242.180599503767,32.77224241483415,243.53971867312484,20" stroke-width="2" style="-webkit-tap-highlight-color: rgba(0, 0, 0, 0);"></path><rect x="253.53971867312484" y="29.999999999999996" width="35.16602154998364" height="13.977979233945323" rx="0" ry="0" fill="#ffffff" stroke="none" style="-webkit-tap-highlight-color: rgba(0, 0, 0, 0);"></rect><path fill="#000000" stroke="none" d="M264.7397186731248,35.594237765504005C266.561940895347,36.03868220994845,269.8508297842359,37.10534887661512,268.7841631175693,39.63868220994845C268.5174964509026,39.77201554328178,268.161940895347,40.17201554328178,267.93971867312484,40.527571098837335C266.29527422868034,41.37201554328178,265.71749645090256,42.03868220994845,265.1397186731248,41.63868220994845C264.7397186731248,42.08312665439289,264.6063853397915,42.127571098837336,263.6286075620137,42.216459987726225C263.6286075620137,42.216459987726225,263.76194089534704,42.08312665439289,263.76194089534704,42.08312665439289C263.58416311756923,41.905348876615115,263.22860756201374,41.905348876615115,262.9619408953471,42.08312665439289C262.9619408953471,42.08312665439289,263.05082978423593,42.17201554328178,263.18416311756926,42.26090443217067C262.250829784236,42.88312665439289,262.0286075620137,42.527571098837335,261.22860756201374,42.92757109883733C261.05082978423593,42.92757109883733,260.9174964509026,42.838682209948445,260.8730520064581,42.70534887661511C260.6063853397915,43.194237765504006,259.9841631175692,42.48312665439289,260.07305200645817,43.194237765504006C258.47305200645815,43.37201554328178,256.0286075620137,44.74979332105956,255.00638533979148,43.37201554328178C254.69527422868035,40.61645998772622,254.56194089534702,37.23868220994845,255.18416311756923,34.527571098837335C255.1397186731248,33.68312665439289,253.53971867312484,34.61645998772622,253.53971867312484,33.32757109883734C253.53971867312484,32.972015543281785,253.62860756201368,32.749793321059556,253.8063853397915,32.66090443217067C256.82860756201364,31.283126654392895,264.07305200645817,28.57201554328178,267.6286075620137,30.927571098837333C267.9841631175692,31.460904432170672,268.161940895347,31.816459987726226,268.161940895347,32.03868220994845C267.8063853397915,33.905348876615115,266.7397186731248,34.216459987726225,264.7397186731248,35.594237765504005C264.7397186731248,35.594237765504005,264.7397186731248,35.594237765504005,264.7397186731248,35.594237765504005M256.8730520064581,36.438682209948446C260.07305200645817,35.68312665439289,262.8730520064581,34.70534887661511,265.05082978423593,33.32757109883734C265.93971867312484,32.749793321059556,266.42860756201367,32.30534887661511,266.42860756201367,32.127571098837336C266.47305200645815,31.86090443217067,265.0952742286804,31.54979332105956,264.7397186731248,31.594237765504005C262.3397186731248,31.594237765504005,259.58416311756923,32.17201554328178,256.47305200645815,33.41645998772623C256.9619408953471,34.34979332105956,256.5174964509026,35.54979332105956,256.8730520064581,36.438682209948446C256.8730520064581,36.438682209948446,256.8730520064581,36.438682209948446,256.8730520064581,36.438682209948446M265.00638533979145,41.63868220994845C265.00638533979145,41.46090443217067,265.1397186731248,41.37201554328178,264.82860756201364,41.41645998772623C264.82860756201364,41.46090443217067,264.8730520064581,41.505348876615116,265.00638533979145,41.63868220994845C265.00638533979145,41.63868220994845,265.00638533979145,41.63868220994845,265.00638533979145,41.63868220994845M262.7397186731248,37.32757109883734C261.22860756201374,37.63868220994845,258.561940895347,38.394237765504,256.561940895347,37.994237765504C256.29527422868034,38.88312665439289,256.3841631175693,40.48312665439289,256.3841631175693,41.63868220994845C256.3841631175693,42.92757109883733,258.29527422868034,41.68312665439289,258.8730520064581,41.72757109883734C261.00638533979145,41.23868220994845,263.6730520064582,40.61645998772622,265.71749645090256,39.594237765504005C266.6063853397915,39.14979332105956,267.1397186731248,38.838682209948445,267.1397186731248,38.48312665439289C267.1397186731248,37.68312665439289,265.6730520064582,37.32757109883734,262.7397186731248,37.32757109883734C262.7397186731248,37.32757109883734,262.7397186731248,37.32757109883734,262.7397186731248,37.32757109883734M262.0286075620137,42.66090443217067C262.29527422868034,42.70534887661511,262.29527422868034,42.57201554328178,262.250829784236,42.34979332105956C262.11749645090254,42.438682209948446,261.93971867312484,42.438682209948446,262.0286075620137,42.66090443217067C262.0286075620137,42.66090443217067,262.0286075620137,42.66090443217067,262.0286075620137,42.66090443217067M274.3397186731248,37.37201554328178C276.65082978423595,36.30534887661511,278.9619408953471,38.17201554328178,278.9619408953471,40.17201554328178C278.9619408953471,42.794237765504,276.0286075620137,43.14979332105956,273.89527422868036,43.86090443217067C271.58416311756923,43.77201554328178,268.7841631175693,41.63868220994845,270.3397186731248,39.194237765504006C271.36194089534706,38.394237765504,272.65082978423595,37.63868220994845,274.3397186731248,37.37201554328178C274.3397186731248,37.37201554328178,274.3397186731248,37.37201554328178,274.3397186731248,37.37201554328178M271.53971867312487,40.88312665439289C272.250829784236,43.283126654392895,277.0952742286804,41.594237765504005,277.36194089534706,39.86090443217067C276.82860756201376,37.23868220994845,271.6286075620137,39.505348876615116,271.53971867312487,40.88312665439289C271.53971867312487,40.88312665439289,271.53971867312487,40.88312665439289,271.53971867312487,40.88312665439289M282.7397186731248,37.32757109883734C285.8063853397914,37.37201554328178,288.2063853397915,37.32757109883734,288.6952742286803,39.63868220994845C288.9174964509026,40.794237765504,285.53971867312475,42.794237765504,284.3841631175692,42.749793321059556C283.89527422868036,43.23868220994845,280.47305200645815,43.72757109883734,280.2063853397915,43.72757109883734C279.71749645090256,43.594237765504005,279.05082978423593,42.92757109883733,279.93971867312473,42.66090443217067C280.7841631175693,42.438682209948446,279.8508297842359,41.816459987726226,279.89527422868036,41.10534887661512C279.93971867312473,40.30534887661511,280.3841631175692,39.505348876615116,279.6730520064581,39.01645998772623C279.4063853397914,38.26090443217067,279.4063853397914,38.08312665439289,280.29527422868034,37.594237765504005C280.561940895347,35.594237765504005,281.0952742286803,33.63868220994845,281.53971867312475,32.08312665439289C281.6286075620137,31.772015543281782,281.89527422868036,31.54979332105956,282.29527422868034,31.416459987726228C282.5174964509025,31.54979332105956,282.7397186731248,31.905348876615115,283.00638533979145,32.66090443217067C282.47305200645815,33.86090443217067,282.42860756201367,35.46090443217067,281.9841631175692,36.92757109883733C281.9841631175692,37.194237765504006,282.25082978423586,37.32757109883734,282.7397186731248,37.32757109883734C282.7397186731248,37.32757109883734,282.7397186731248,37.32757109883734,282.7397186731248,37.32757109883734M283.05082978423593,38.794237765504C281.2730520064581,38.394237765504,281.6730520064581,40.17201554328178,281.3174964509026,41.194237765504006C281.6730520064581,41.86090443217067,281.3174964509026,42.30534887661511,281.8508297842359,42.17201554328178C283.18416311756926,41.816459987726226,284.5174964509025,41.37201554328178,285.76194089534704,40.749793321059556C287.4952742286804,39.94979332105956,287.93971867312473,39.283126654392895,285.71749645090256,38.88312665439289C284.82860756201364,38.70534887661511,283.71749645090256,38.57201554328178,283.05082978423593,38.794237765504C283.05082978423593,38.794237765504,283.05082978423593,38.794237765504,283.05082978423593,38.794237765504" style="-webkit-tap-highlight-color: rgba(0, 0, 0, 0);"></path><path fill="#ffffff" stroke="#000000" d="M243.53971867312484,202.09401090811414C283.5532911821274,204.3006517701135,288.78445817466667,199.8873700461148,298.70574022310865,202.09401090811414C300.0648593924665,220.27896221074406,297.3466210537508,203.59968121610183,298.70574022310865,236.07199014205946C282.9752785670622,238.2786310040588,254.7743469213069,233.86534928006012,243.53971867312484,236.07199014205946C242.180599503767,233.1246671595344,244.89883784248266,208.01656902780184,243.53971867312484,202.09401090811414" stroke-width="2" style="-webkit-tap-highlight-color: rgba(0, 0, 0, 0);"></path><rect x="253.53971867312484" y="212.09401090811414" width="35.16602154998364" height="13.97797923394532" rx="0" ry="0" fill="#ffffff" stroke="none" style="-webkit-tap-highlight-color: rgba(0, 0, 0, 0);"></rect><path fill="#000000" stroke="none" d="M264.7397186731248,217.68824867361815C266.561940895347,218.13269311806258,269.8508297842359,219.19935978472924,268.7841631175693,221.7326931180626C268.5174964509026,221.86602645139592,268.161940895347,222.26602645139593,267.93971867312484,222.62158200695148C266.29527422868034,223.46602645139592,265.71749645090256,224.13269311806258,265.1397186731248,223.7326931180626C264.7397186731248,224.17713756250703,264.6063853397915,224.22158200695148,263.6286075620137,224.31047089584035C263.6286075620137,224.31047089584035,263.76194089534704,224.17713756250703,263.76194089534704,224.17713756250703C263.58416311756923,223.99935978472925,263.22860756201374,223.99935978472925,262.9619408953471,224.17713756250703C262.9619408953471,224.17713756250703,263.05082978423593,224.26602645139593,263.18416311756926,224.3549153402848C262.250829784236,224.97713756250704,262.0286075620137,224.62158200695148,261.22860756201374,225.02158200695146C261.05082978423593,225.02158200695146,260.9174964509026,224.9326931180626,260.8730520064581,224.79935978472926C260.6063853397915,225.28824867361814,259.9841631175692,224.57713756250703,260.07305200645817,225.28824867361814C258.47305200645815,225.46602645139592,256.0286075620137,226.84380422917368,255.00638533979148,225.46602645139592C254.69527422868035,222.71047089584036,254.56194089534702,219.3326931180626,255.18416311756923,216.62158200695148C255.1397186731248,215.77713756250702,253.53971867312484,216.71047089584036,253.53971867312484,215.42158200695147C253.53971867312484,215.0660264513959,253.62860756201368,214.84380422917368,253.8063853397915,214.7549153402848C256.82860756201364,213.37713756250702,264.07305200645817,210.6660264513959,267.6286075620137,213.02158200695146C267.9841631175692,213.5549153402848,268.161940895347,213.91047089584035,268.161940895347,214.13269311806258C267.8063853397915,215.99935978472925,266.7397186731248,216.31047089584035,264.7397186731248,217.68824867361815C264.7397186731248,217.68824867361815,264.7397186731248,217.68824867361815,264.7397186731248,217.68824867361815M256.8730520064581,218.53269311806258C260.07305200645817,217.77713756250702,262.8730520064581,216.79935978472926,265.05082978423593,215.42158200695147C265.93971867312484,214.84380422917368,266.42860756201367,214.39935978472926,266.42860756201367,214.22158200695148C266.47305200645815,213.9549153402848,265.0952742286804,213.6438042291737,264.7397186731248,213.68824867361815C262.3397186731248,213.68824867361815,259.58416311756923,214.26602645139593,256.47305200645815,215.51047089584037C256.9619408953471,216.4438042291737,256.5174964509026,217.6438042291737,256.8730520064581,218.53269311806258C256.8730520064581,218.53269311806258,256.8730520064581,218.53269311806258,256.8730520064581,218.53269311806258M265.00638533979145,223.7326931180626C265.00638533979145,223.5549153402848,265.1397186731248,223.46602645139592,264.82860756201364,223.51047089584037C264.82860756201364,223.5549153402848,264.8730520064581,223.59935978472924,265.00638533979145,223.7326931180626C265.00638533979145,223.7326931180626,265.00638533979145,223.7326931180626,265.00638533979145,223.7326931180626M262.7397186731248,219.42158200695147C261.22860756201374,219.7326931180626,258.561940895347,220.48824867361813,256.561940895347,220.08824867361815C256.29527422868034,220.97713756250704,256.3841631175693,222.57713756250703,256.3841631175693,223.7326931180626C256.3841631175693,225.02158200695146,258.29527422868034,223.77713756250702,258.8730520064581,223.82158200695147C261.00638533979145,223.3326931180626,263.6730520064582,222.71047089584036,265.71749645090256,221.68824867361815C266.6063853397915,221.2438042291737,267.1397186731248,220.9326931180626,267.1397186731248,220.57713756250703C267.1397186731248,219.77713756250702,265.6730520064582,219.42158200695147,262.7397186731248,219.42158200695147C262.7397186731248,219.42158200695147,262.7397186731248,219.42158200695147,262.7397186731248,219.42158200695147M262.0286075620137,224.7549153402848C262.29527422868034,224.79935978472926,262.29527422868034,224.6660264513959,262.250829784236,224.4438042291737C262.11749645090254,224.53269311806258,261.93971867312484,224.53269311806258,262.0286075620137,224.7549153402848C262.0286075620137,224.7549153402848,262.0286075620137,224.7549153402848,262.0286075620137,224.7549153402848M274.3397186731248,219.46602645139592C276.65082978423595,218.39935978472926,278.9619408953471,220.26602645139593,278.9619408953471,222.26602645139593C278.9619408953471,224.88824867361814,276.0286075620137,225.2438042291737,273.89527422868036,225.9549153402848C271.58416311756923,225.86602645139592,268.7841631175693,223.7326931180626,270.3397186731248,221.28824867361814C271.36194089534706,220.48824867361813,272.65082978423595,219.7326931180626,274.3397186731248,219.46602645139592C274.3397186731248,219.46602645139592,274.3397186731248,219.46602645139592,274.3397186731248,219.46602645139592M271.53971867312487,222.97713756250704C272.250829784236,225.37713756250702,277.0952742286804,223.68824867361815,277.36194089534706,221.9549153402848C276.82860756201376,219.3326931180626,271.6286075620137,221.59935978472924,271.53971867312487,222.97713756250704C271.53971867312487,222.97713756250704,271.53971867312487,222.97713756250704,271.53971867312487,222.97713756250704M282.7397186731248,219.42158200695147C285.8063853397914,219.46602645139592,288.2063853397915,219.42158200695147,288.6952742286803,221.7326931180626C288.9174964509026,222.88824867361814,285.53971867312475,224.88824867361814,284.3841631175692,224.84380422917368C283.89527422868036,225.3326931180626,280.47305200645815,225.82158200695147,280.2063853397915,225.82158200695147C279.71749645090256,225.68824867361815,279.05082978423593,225.02158200695146,279.93971867312473,224.7549153402848C280.7841631175693,224.53269311806258,279.8508297842359,223.91047089584038,279.89527422868036,223.19935978472924C279.93971867312473,222.39935978472926,280.3841631175692,221.59935978472924,279.6730520064581,221.11047089584036C279.4063853397914,220.3549153402848,279.4063853397914,220.17713756250703,280.29527422868034,219.68824867361815C280.561940895347,217.68824867361815,281.0952742286803,215.7326931180626,281.53971867312475,214.17713756250703C281.6286075620137,213.86602645139592,281.89527422868036,213.6438042291737,282.29527422868034,213.51047089584037C282.5174964509025,213.6438042291737,282.7397186731248,213.99935978472925,283.00638533979145,214.7549153402848C282.47305200645815,215.9549153402848,282.42860756201367,217.5549153402848,281.9841631175692,219.02158200695146C281.9841631175692,219.28824867361814,282.25082978423586,219.42158200695147,282.7397186731248,219.42158200695147C282.7397186731248,219.42158200695147,282.7397186731248,219.42158200695147,282.7397186731248,219.42158200695147M283.05082978423593,220.88824867361814C281.2730520064581,220.48824867361813,281.6730520064581,222.26602645139593,281.3174964509026,223.28824867361814C281.6730520064581,223.9549153402848,281.3174964509026,224.39935978472926,281.8508297842359,224.26602645139593C283.18416311756926,223.91047089584038,284.5174964509025,223.46602645139592,285.76194089534704,222.84380422917368C287.4952742286804,222.0438042291737,287.93971867312473,221.37713756250702,285.71749645090256,220.97713756250704C284.82860756201364,220.79935978472926,283.71749645090256,220.6660264513959,283.05082978423593,220.88824867361814C283.05082978423593,220.88824867361814,283.05082978423593,220.88824867361814,283.05082978423593,220.88824867361814" style="-webkit-tap-highlight-color: rgba(0, 0, 0, 0);"></path><path fill="none" stroke="#000000" d="M271.12272944811673,53.97797923394532C265.19808818114996,170.66523147801473,277.0473707150835,125.01669936197608,271.12272944811673,202.09401090811414" stroke-width="2" style="-webkit-tap-highlight-color: rgba(0, 0, 0, 0);"></path><rect x="48.62365885636538" y="68.03079280355138" width="212.49907059175135" height="21.894372860787897" rx="0" ry="0" fill="#ffffff" stroke="none" style="-webkit-tap-highlight-color: rgba(0, 0, 0, 0);"></rect><path fill="#000000" stroke="none" d="M61.61161833700564,69.90342408170403C62.41161833700562,70.43675741503736,62.45606278145007,71.32564630392626,61.789396114783415,72.1700907483707C60.23384055922784,74.12564630392626,60.278285003672295,78.39231297059293,59.74495167033896,81.81453519281514C59.70050722589451,82.03675741503737,59.522729448116735,82.39231297059293,59.25606278145008,82.34786852614847C58.9893961147834,82.39231297059293,58.41161833700562,81.72564630392625,58.45606278145007,81.14786852614847C58.45606278145007,81.14786852614847,58.767173892561175,76.43675741503736,58.767173892561175,76.43675741503736C57.522729448116735,76.74786852614848,55.38939611478341,77.41453519281514,53.61161833700564,77.05897963725958C52.811618337005626,77.14786852614847,52.011618337005615,77.32564630392625,51.16717389256118,77.19231297059292C49.25606278145008,76.83675741503737,50.544951670338975,79.54786852614848,49.70050722589451,80.52564630392625C48.41161833700562,80.5700907483707,48.544951670338975,77.54786852614848,48.767173892561175,76.21453519281515C48.9893961147834,74.83675741503737,50.011618337005615,72.9700907483707,50.6782850036723,71.8589796372596C50.767173892561175,71.94786852614847,50.9893961147834,71.99231297059292,51.300507225894506,71.99231297059292C51.87828500367229,73.45897963725959,50.811618337005626,74.12564630392626,50.72272944811675,75.45897963725959C53.43384055922786,75.63675741503737,55.96717389256119,75.54786852614848,58.544951670338975,75.54786852614848C58.90050722589453,75.54786852614848,59.12272944811673,75.28120185948181,59.21161833700563,74.65897963725959C59.38939611478341,72.5700907483707,60.14495167033897,70.79231297059292,61.61161833700564,69.90342408170403C61.61161833700564,69.90342408170403,61.61161833700564,69.90342408170403,61.61161833700564,69.90342408170403M61.25606278145008,79.28120185948181C61.25606278145008,76.70342408170403,63.52272944811676,76.12564630392626,66.14495167033897,75.99231297059292C67.61161833700564,75.94786852614847,68.14495167033897,76.70342408170403,68.7671738925612,77.54786852614848C68.81161833700563,78.1700907483707,68.85606278145008,79.28120185948181,68.45606278145007,79.41453519281514C67.38939611478341,79.32564630392625,65.21161833700563,79.99231297059292,64.0560627814501,79.90342408170403C63.96717389256119,79.99231297059292,63.96717389256119,80.03675741503737,63.96717389256119,80.03675741503737C63.96717389256119,80.1700907483707,64.50050722589452,80.39231297059293,65.61161833700564,80.70342408170403C66.54495167033897,80.70342408170403,68.6782850036723,81.10342408170403,66.9893961147834,81.6812018594818C66.58939611478343,82.30342408170404,65.47828500367231,81.94786852614848,64.50050722589452,81.94786852614848C63.300507225894535,81.72564630392625,61.25606278145008,80.70342408170403,61.25606278145008,79.28120185948181C61.25606278145008,79.28120185948181,61.25606278145008,79.28120185948181,61.25606278145008,79.28120185948181M66.54495167033897,77.28120185948181C65.56717389256119,77.3700907483707,63.52272944811676,77.50342408170403,63.65606278145009,78.43675741503736C64.72272944811675,78.34786852614847,66.58939611478343,78.65897963725959,67.16717389256121,78.1700907483707C66.94495167033898,77.59231297059291,67.12272944811676,77.59231297059291,66.54495167033897,77.28120185948181C66.54495167033897,77.28120185948181,66.54495167033897,77.28120185948181,66.54495167033897,77.28120185948181M72.10050722589452,68.48120185948181C73.03384055922785,68.21453519281515,73.74495167033896,69.50342408170404,73.43384055922786,70.92564630392626C72.9893961147834,73.19231297059292,72.18939611478339,76.92564630392626,72.18939611478339,80.1700907483707C72.18939611478339,80.65897963725959,72.45606278145007,81.77009074837069,71.61161833700564,81.81453519281514C70.32272944811675,81.59231297059291,70.2782850036723,79.6812018594818,70.50050722589452,78.12564630392626C70.50050722589452,78.12564630392626,71.74495167033896,70.25897963725959,71.74495167033896,70.25897963725959C71.47828500367228,69.50342408170404,71.78939611478341,68.9700907483707,72.10050722589452,68.48120185948181C72.10050722589452,68.48120185948181,72.10050722589452,68.48120185948181,72.10050722589452,68.48120185948181M76.63384055922785,68.48120185948181C77.56717389256119,68.21453519281515,78.2782850036723,69.50342408170404,77.96717389256119,70.92564630392626C77.52272944811673,73.19231297059292,76.72272944811672,76.92564630392626,76.72272944811672,80.1700907483707C76.72272944811672,80.65897963725959,76.9893961147834,81.77009074837069,76.14495167033897,81.81453519281514C74.85606278145008,81.59231297059291,74.81161833700563,79.6812018594818,75.03384055922785,78.12564630392626C75.03384055922785,78.12564630392626,76.2782850036723,70.25897963725959,76.2782850036723,70.25897963725959C76.01161833700561,69.50342408170404,76.32272944811675,68.9700907483707,76.63384055922785,68.48120185948181C76.63384055922785,68.48120185948181,76.63384055922785,68.48120185948181,76.63384055922785,68.48120185948181M83.03384055922785,75.63675741503737C85.34495167033896,74.5700907483707,87.65606278145006,76.43675741503736,87.65606278145006,78.43675741503736C87.65606278145006,81.05897963725958,84.72272944811672,81.41453519281514,82.5893961147834,82.12564630392626C80.2782850036723,82.03675741503737,77.47828500367228,79.90342408170403,79.03384055922785,77.45897963725959C80.05606278145007,76.65897963725959,81.34495167033896,75.90342408170403,83.03384055922785,75.63675741503737C83.03384055922785,75.63675741503737,83.03384055922785,75.63675741503737,83.03384055922785,75.63675741503737M80.23384055922784,79.14786852614847C80.94495167033895,81.54786852614848,85.78939611478339,79.8589796372596,86.05606278145007,78.12564630392626C85.52272944811673,75.50342408170403,80.32272944811675,77.77009074837069,80.23384055922784,79.14786852614847C80.23384055922784,79.14786852614847,80.23384055922784,79.14786852614847,80.23384055922784,79.14786852614847M107.2116183370056,73.8589796372596C109.03384055922783,74.30342408170404,112.32272944811672,75.3700907483707,111.25606278145005,77.90342408170403C110.9893961147834,78.03675741503737,110.63384055922785,78.43675741503736,110.41161833700562,78.79231297059292C108.76717389256117,79.63675741503737,108.18939611478339,80.30342408170404,107.61161833700561,79.90342408170403C107.2116183370056,80.34786852614847,107.07828500367228,80.39231297059293,106.10050722589452,80.48120185948181C106.10050722589452,80.48120185948181,106.23384055922784,80.34786852614847,106.23384055922784,80.34786852614847C106.05606278145007,80.1700907483707,105.70050722589451,80.1700907483707,105.43384055922783,80.34786852614847C105.43384055922783,80.34786852614847,105.52272944811673,80.43675741503736,105.65606278145006,80.52564630392625C104.72272944811672,81.14786852614847,104.5005072258945,80.79231297059292,103.70050722589451,81.19231297059292C103.52272944811673,81.19231297059292,103.38939611478338,81.10342408170403,103.34495167033896,80.9700907483707C103.07828500367228,81.45897963725959,102.45606278145007,80.74786852614848,102.54495167033895,81.45897963725959C100.94495167033895,81.63675741503737,98.5005072258945,83.01453519281515,97.47828500367228,81.63675741503737C97.16717389256118,78.8812018594818,97.03384055922783,75.50342408170403,97.65606278145006,72.79231297059292C97.61161833700561,71.94786852614847,96.01161833700561,72.8812018594818,96.01161833700561,71.59231297059293C96.01161833700561,71.23675741503737,96.10050722589452,71.01453519281515,96.2782850036723,70.92564630392626C99.3005072258945,69.54786852614848,106.54495167033895,66.83675741503737,110.10050722589452,69.19231297059292C110.45606278145007,69.72564630392625,110.63384055922785,70.08120185948181,110.63384055922785,70.30342408170404C110.2782850036723,72.1700907483707,109.2116183370056,72.48120185948181,107.2116183370056,73.8589796372596C107.2116183370056,73.8589796372596,107.2116183370056,73.8589796372596,107.2116183370056,73.8589796372596M99.34495167033896,74.70342408170403C102.54495167033895,73.94786852614847,105.34495167033896,72.9700907483707,107.52272944811673,71.59231297059293C108.41161833700562,71.01453519281515,108.9005072258945,70.5700907483707,108.9005072258945,70.39231297059293C108.94495167033895,70.12564630392626,107.56717389256119,69.81453519281514,107.2116183370056,69.8589796372596C104.81161833700563,69.8589796372596,102.05606278145007,70.43675741503736,98.94495167033895,71.68120185948182C99.43384055922783,72.61453519281514,98.9893961147834,73.81453519281514,99.34495167033896,74.70342408170403C99.34495167033896,74.70342408170403,99.34495167033896,74.70342408170403,99.34495167033896,74.70342408170403M107.47828500367228,79.90342408170403C107.47828500367228,79.72564630392625,107.61161833700561,79.63675741503737,107.3005072258945,79.6812018594818C107.3005072258945,79.72564630392625,107.34495167033896,79.77009074837069,107.47828500367228,79.90342408170403C107.47828500367228,79.90342408170403,107.47828500367228,79.90342408170403,107.47828500367228,79.90342408170403M105.2116183370056,75.59231297059291C103.70050722589451,75.90342408170403,101.03384055922783,76.65897963725959,99.03384055922783,76.25897963725959C98.76717389256117,77.14786852614847,98.85606278145005,78.74786852614848,98.85606278145005,79.90342408170403C98.85606278145005,81.19231297059292,100.76717389256117,79.94786852614848,101.34495167033896,79.99231297059292C103.47828500367228,79.50342408170403,106.14495167033894,78.8812018594818,108.18939611478339,77.8589796372596C109.07828500367228,77.41453519281514,109.61161833700561,77.10342408170403,109.61161833700561,76.74786852614848C109.61161833700561,75.94786852614847,108.14495167033894,75.59231297059291,105.2116183370056,75.59231297059291C105.2116183370056,75.59231297059291,105.2116183370056,75.59231297059291,105.2116183370056,75.59231297059291M104.5005072258945,80.92564630392626C104.76717389256117,80.9700907483707,104.76717389256117,80.83675741503737,104.72272944811672,80.61453519281514C104.5893961147834,80.70342408170403,104.41161833700562,80.70342408170403,104.5005072258945,80.92564630392626C104.5005072258945,80.92564630392626,104.5005072258945,80.92564630392626,104.5005072258945,80.92564630392626M116.81161833700565,75.63675741503737C119.12272944811676,74.5700907483707,121.43384055922786,76.43675741503736,121.43384055922786,78.43675741503736C121.43384055922786,81.05897963725958,118.50050722589452,81.41453519281514,116.3671738925612,82.12564630392626C114.0560627814501,82.03675741503737,111.25606278145008,79.90342408170403,112.81161833700565,77.45897963725959C113.83384055922787,76.65897963725959,115.12272944811676,75.90342408170403,116.81161833700565,75.63675741503737C116.81161833700565,75.63675741503737,116.81161833700565,75.63675741503737,116.81161833700565,75.63675741503737M114.01161833700564,79.14786852614847C114.72272944811675,81.54786852614848,119.56717389256119,79.8589796372596,119.83384055922787,78.12564630392626C119.30050722589453,75.50342408170403,114.10050722589455,77.77009074837069,114.01161833700564,79.14786852614847C114.01161833700564,79.14786852614847,114.01161833700564,79.14786852614847,114.01161833700564,79.14786852614847M125.2116183370056,75.59231297059291C128.2782850036723,75.63675741503737,130.67828500367227,75.59231297059291,131.16717389256118,77.90342408170403C131.38939611478338,79.05897963725958,128.01161833700561,81.05897963725958,126.85606278145005,81.01453519281515C126.36717389256117,81.50342408170403,122.94495167033895,81.99231297059292,122.67828500367227,81.99231297059292C122.18939611478339,81.8589796372596,121.52272944811673,81.19231297059292,122.41161833700562,80.92564630392626C123.25606278145005,80.70342408170403,122.32272944811672,80.08120185948181,122.36717389256117,79.3700907483707C122.41161833700562,78.5700907483707,122.85606278145005,77.77009074837069,122.14495167033894,77.28120185948181C121.87828500367229,76.52564630392625,121.87828500367229,76.34786852614847,122.76717389256117,75.8589796372596C123.03384055922783,73.8589796372596,123.56717389256116,71.90342408170403,124.01161833700561,70.34786852614847C124.10050722589452,70.03675741503737,124.36717389256117,69.81453519281514,124.76717389256117,69.68120185948182C124.9893961147834,69.81453519281514,125.2116183370056,70.1700907483707,125.47828500367228,70.92564630392626C124.94495167033895,72.12564630392625,124.9005072258945,73.72564630392625,124.45606278145007,75.19231297059292C124.45606278145007,75.45897963725959,124.72272944811672,75.59231297059291,125.2116183370056,75.59231297059291C125.2116183370056,75.59231297059291,125.2116183370056,75.59231297059291,125.2116183370056,75.59231297059291M125.52272944811673,77.05897963725958C123.74495167033896,76.65897963725959,124.14495167033894,78.43675741503736,123.78939611478339,79.45897963725959C124.14495167033894,80.12564630392626,123.78939611478339,80.5700907483707,124.32272944811672,80.43675741503736C125.65606278145006,80.08120185948181,126.9893961147834,79.63675741503737,128.23384055922784,79.01453519281515C129.96717389256116,78.21453519281515,130.41161833700562,77.54786852614848,128.1893961147834,77.14786852614847C127.3005072258945,76.9700907483707,126.18939611478339,76.83675741503737,125.52272944811673,77.05897963725958C125.52272944811673,77.05897963725958,125.52272944811673,77.05897963725958,125.52272944811673,77.05897963725958M132.41161833700562,84.61453519281514C131.25606278145005,85.54786852614848,130.2782850036723,84.52564630392625,131.43384055922783,83.54786852614848C132.05606278145007,83.01453519281515,132.9893961147834,81.77009074837069,132.9893961147834,80.48120185948181C133.12272944811673,80.39231297059293,133.12272944811673,79.99231297059292,133.52272944811673,80.08120185948181C135.07828500367228,80.83675741503737,133.74495167033896,83.99231297059292,132.41161833700562,84.61453519281514C132.41161833700562,84.61453519281514,132.41161833700562,84.61453519281514,132.41161833700562,84.61453519281514M148.01161833700564,68.03675741503737C148.50050722589452,67.94786852614848,148.4560627814501,68.8812018594818,148.50050722589452,68.92564630392626C148.01161833700564,71.23675741503737,146.72272944811675,74.83675741503737,146.14495167033897,77.32564630392625C145.87828500367232,78.65897963725959,145.744951670339,78.9700907483707,145.744951670339,79.41453519281514C146.94495167033898,79.41453519281514,150.76717389256117,77.90342408170403,152.10050722589455,77.90342408170403C153.96717389256116,77.90342408170403,153.47828500367228,79.99231297059292,153.83384055922784,81.41453519281514C153.83384055922784,81.59231297059291,153.6116183370056,82.1700907483707,153.12272944811673,82.12564630392626C153.30050722589453,82.21453519281515,153.6116183370056,82.25897963725959,153.30050722589453,82.39231297059293C152.23384055922787,82.34786852614847,152.05606278145007,80.8812018594818,152.1893961147834,79.54786852614848C152.14495167033897,79.50342408170403,152.10050722589455,79.41453519281514,151.96717389256116,79.32564630392625C149.7005072258945,79.32564630392625,147.0782850036723,81.01453519281515,144.76717389256117,81.59231297059291C144.3671738925612,81.63675741503737,144.10050722589452,80.92564630392626,144.05606278145007,80.5700907483707C144.81161833700563,76.61453519281514,145.78939611478341,74.30342408170404,147.21161833700563,68.83675741503737C147.21161833700563,68.43675741503736,147.47828500367228,67.99231297059292,148.01161833700564,68.03675741503737C148.01161833700564,68.03675741503737,148.01161833700564,68.03675741503737,148.01161833700564,68.03675741503737M159.52272944811676,75.63675741503737C161.83384055922784,74.5700907483707,164.14495167033897,76.43675741503736,164.14495167033897,78.43675741503736C164.14495167033897,81.05897963725958,161.21161833700563,81.41453519281514,159.0782850036723,82.12564630392626C156.76717389256117,82.03675741503737,153.96717389256122,79.90342408170403,155.52272944811676,77.45897963725959C156.54495167033895,76.65897963725959,157.83384055922784,75.90342408170403,159.52272944811676,75.63675741503737C159.52272944811676,75.63675741503737,159.52272944811676,75.63675741503737,159.52272944811676,75.63675741503737M156.72272944811675,79.14786852614847C157.43384055922786,81.54786852614848,162.2782850036723,79.8589796372596,162.544951670339,78.12564630392626C162.01161833700564,75.50342408170403,156.81161833700565,77.77009074837069,156.72272944811675,79.14786852614847C156.72272944811675,79.14786852614847,156.72272944811675,79.14786852614847,156.72272944811675,79.14786852614847M165.03384055922788,75.63675741503737C166.72272944811675,75.54786852614848,166.23384055922787,78.1700907483707,167.03384055922788,79.45897963725959C168.3671738925612,79.54786852614848,170.01161833700564,76.52564630392625,171.52272944811676,75.99231297059292C172.67828500367233,76.25897963725959,173.12272944811673,79.05897963725958,174.1893961147834,79.45897963725959C176.2782850036723,77.90342408170403,176.4560627814501,77.05897963725958,179.47828500367228,74.83675741503737C179.61161833700567,74.83675741503737,179.78939611478341,74.74786852614848,180.14495167033897,74.65897963725959C180.9893961147834,75.6812018594818,179.744951670339,75.90342408170403,179.21161833700563,76.83675741503737C177.744951670339,78.08120185948181,176.1893961147834,80.83675741503737,174.4560627814501,81.6812018594818C174.01161833700564,81.94786852614848,172.14495167033897,79.59231297059291,171.2560627814501,78.52564630392625C170.3671738925612,79.28120185948181,167.47828500367228,81.81453519281514,166.94495167033898,81.77009074837069C165.2560627814501,82.08120185948181,165.12272944811673,77.41453519281514,164.63384055922785,76.34786852614847C164.63384055922785,76.30342408170404,164.76717389256117,76.03675741503737,165.03384055922788,75.63675741503737C165.03384055922788,75.63675741503737,165.03384055922788,75.63675741503737,165.03384055922788,75.63675741503737M192.2782850036723,79.32564630392625C192.72272944811675,79.50342408170403,194.9005072258945,81.14786852614847,195.16717389256115,81.54786852614848C195.21161833700563,81.8589796372596,194.9005072258945,82.30342408170404,194.63384055922785,82.30342408170404C194.63384055922785,82.30342408170404,191.96717389256116,80.9700907483707,191.96717389256116,80.9700907483707C190.9893961147834,81.05897963725958,190.1005072258945,81.90342408170403,189.0782850036723,81.81453519281514C187.6116183370056,81.99231297059292,186.05606278145007,78.83675741503737,188.41161833700562,78.21453519281515C190.23384055922781,77.01453519281515,192.67828500367227,76.48120185948181,193.30050722589453,78.61453519281514C193.30050722589453,78.8812018594818,193.12272944811673,79.14786852614847,192.8116183370056,79.32564630392625C191.34495167033896,78.21453519281515,189.83384055922784,79.10342408170403,188.9005072258945,79.8589796372596C189.34495167033896,80.5700907483707,191.6116183370056,79.05897963725958,192.2782850036723,79.32564630392625C192.2782850036723,79.32564630392625,192.2782850036723,79.32564630392625,192.2782850036723,79.32564630392625M206.23384055922781,76.61453519281514C206.32272944811672,77.59231297059291,206.45606278145004,77.05897963725958,205.6116183370056,77.63675741503737C202.3671738925612,77.32564630392625,198.23384055922781,76.61453519281514,197.87828500367226,80.12564630392626C197.5227294481167,80.39231297059293,197.74495167033893,81.01453519281515,197.5227294481167,81.72564630392625C196.23384055922781,82.1700907483707,195.74495167033893,81.32564630392625,196.05606278145007,79.6812018594818C196.32272944811672,78.30342408170404,196.3671738925612,76.61453519281514,197.47828500367228,77.23675741503736C200.05606278145007,75.59231297059291,200.41161833700562,75.3700907483707,205.25606278145005,76.39231297059293C205.38939611478338,76.61453519281514,205.92272944811674,76.5700907483707,206.23384055922781,76.61453519281514C206.23384055922781,76.61453519281514,206.23384055922781,76.61453519281514,206.23384055922781,76.61453519281514M205.8338405592279,79.28120185948181C205.8338405592279,76.70342408170403,208.10050722589455,76.12564630392626,210.72272944811675,75.99231297059292C212.18939611478345,75.94786852614847,212.72272944811675,76.70342408170403,213.34495167033896,77.54786852614848C213.38939611478344,78.1700907483707,213.43384055922786,79.28120185948181,213.03384055922788,79.41453519281514C211.96717389256122,79.32564630392625,209.78939611478341,79.99231297059292,208.63384055922785,79.90342408170403C208.544951670339,79.99231297059292,208.544951670339,80.03675741503737,208.544951670339,80.03675741503737C208.544951670339,80.1700907483707,209.0782850036723,80.39231297059293,210.18939611478345,80.70342408170403C211.12272944811673,80.70342408170403,213.2560627814501,81.10342408170403,211.5671738925612,81.6812018594818C211.1671738925612,82.30342408170404,210.05606278145007,81.94786852614848,209.0782850036723,81.94786852614848C207.87828500367232,81.72564630392625,205.8338405592279,80.70342408170403,205.8338405592279,79.28120185948181C205.8338405592279,79.28120185948181,205.8338405592279,79.28120185948181,205.8338405592279,79.28120185948181M211.12272944811673,77.28120185948181C210.14495167033897,77.3700907483707,208.10050722589455,77.50342408170403,208.23384055922787,78.43675741503736C209.30050722589453,78.34786852614847,211.1671738925612,78.65897963725959,211.744951670339,78.1700907483707C211.52272944811676,77.59231297059291,211.7005072258945,77.59231297059291,211.12272944811673,77.28120185948181C211.12272944811673,77.28120185948181,211.12272944811673,77.28120185948181,211.12272944811673,77.28120185948181M223.6560627814501,78.92564630392626C224.63384055922785,80.39231297059293,226.76717389256117,79.10342408170403,228.05606278145007,78.5700907483707C228.2782850036723,78.39231297059293,229.30050722589453,77.90342408170403,229.87828500367232,77.19231297059292C229.87828500367232,77.19231297059292,230.63384055922785,77.19231297059292,230.63384055922785,77.19231297059292C231.74495167033893,79.28120185948181,229.47828500367228,80.30342408170404,228.85606278145008,82.25897963725959C228.63384055922785,82.43675741503736,228.45606278145004,82.61453519281514,228.41161833700562,83.19231297059292C227.7005072258945,83.72564630392625,227.92272944811674,84.65897963725959,227.21161833700563,85.45897963725959C226.9893961147834,86.25897963725959,226.67828500367227,87.3700907483707,226.1893961147834,88.61453519281514C226.14495167033897,88.5700907483707,226.1005072258945,90.12564630392626,225.38939611478338,89.90342408170403C224.85606278145008,89.94786852614847,224.41161833700562,89.3700907483707,224.41161833700562,88.8812018594818C225.30050722589453,85.77009074837069,225.47828500367228,85.99231297059292,227.43384055922786,81.01453519281515C225.34495167033896,81.72564630392625,222.50050722589452,81.3700907483707,222.2782850036723,79.28120185948181C221.78939611478341,78.70342408170403,221.96717389256116,76.52564630392625,222.63384055922785,76.52564630392625C223.43384055922786,76.52564630392625,223.6116183370056,77.6812018594818,223.6560627814501,78.92564630392626C223.6560627814501,78.92564630392626,223.6560627814501,78.92564630392626,223.6560627814501,78.92564630392626M236.10050722589455,75.63675741503737C238.41161833700562,74.5700907483707,240.72272944811675,76.43675741503736,240.72272944811675,78.43675741503736C240.72272944811675,81.05897963725958,237.78939611478341,81.41453519281514,235.6560627814501,82.12564630392626C233.34495167033896,82.03675741503737,230.544951670339,79.90342408170403,232.10050722589455,77.45897963725959C233.12272944811673,76.65897963725959,234.41161833700562,75.90342408170403,236.10050722589455,75.63675741503737C236.10050722589455,75.63675741503737,236.10050722589455,75.63675741503737,236.10050722589455,75.63675741503737M233.30050722589453,79.14786852614847C234.01161833700564,81.54786852614848,238.85606278145008,79.8589796372596,239.1227294481168,78.12564630392626C238.58939611478343,75.50342408170403,233.38939611478344,77.77009074837069,233.30050722589453,79.14786852614847C233.30050722589453,79.14786852614847,233.30050722589453,79.14786852614847,233.30050722589453,79.14786852614847M250.14495167033897,75.77009074837069C250.10050722589455,75.6812018594818,250.63384055922785,75.14786852614847,250.76717389256117,75.19231297059292C251.03384055922788,75.19231297059292,251.21161833700563,75.50342408170403,251.21161833700563,76.1700907483707C251.0782850036723,77.94786852614848,250.18939611478345,78.65897963725959,249.43384055922786,79.81453519281514C248.85606278145008,80.65897963725959,246.67828500367233,81.72564630392625,245.30050722589453,81.72564630392625C242.32272944811677,81.63675741503737,240.3671738925612,78.39231297059293,242.14495167033897,75.81453519281514C243.30050722589453,75.6812018594818,243.0782850036723,77.10342408170403,242.9893961147834,77.99231297059292C242.94495167033898,79.19231297059292,244.14495167033897,79.94786852614848,245.52272944811676,79.8589796372596C247.34495167033896,79.77009074837069,249.6560627814501,77.41453519281514,250.14495167033897,75.77009074837069C250.14495167033897,75.77009074837069,250.14495167033897,75.77009074837069,250.14495167033897,75.77009074837069M256.3671738925612,68.8812018594818C258.9005072258945,68.30342408170404,261.12272944811673,68.70342408170403,261.12272944811673,70.61453519281514C261.12272944811673,73.59231297059291,255.0782850036723,74.39231297059293,254.23384055922787,76.70342408170403C254.1893961147834,76.9700907483707,254.67828500367227,77.72564630392625,254.05606278145007,77.72564630392625C253.03384055922783,77.77009074837069,252.58939611478343,76.1700907483707,253.03384055922783,75.19231297059292C254.41161833700562,73.3700907483707,258.54495167033895,72.52564630392625,259.6560627814501,70.61453519281514C259.30050722589453,69.68120185948182,256.45606278145004,70.39231297059293,255.74495167033893,70.5700907483707C254.72272944811675,70.83675741503737,253.12272944811673,72.30342408170404,252.58939611478343,70.92564630392626C252.58939611478343,70.92564630392626,252.54495167033895,70.92564630392626,252.63384055922785,70.1700907483707C253.0782850036723,69.99231297059292,254.63384055922785,69.28120185948181,256.3671738925612,68.8812018594818C256.3671738925612,68.8812018594818,256.3671738925612,68.8812018594818,256.3671738925612,68.8812018594818M255.25606278145005,80.70342408170403C254.9893961147834,80.8812018594818,254.9005072258945,82.43675741503736,254.1893961147834,81.6812018594818C253.12272944811673,81.81453519281514,253.21161833700563,80.74786852614848,253.6116183370056,80.12564630392626C254.3671738925612,79.81453519281514,254.9005072258945,80.34786852614847,255.25606278145005,80.70342408170403C255.25606278145005,80.70342408170403,255.25606278145005,80.70342408170403,255.25606278145005,80.70342408170403" style="-webkit-tap-highlight-color: rgba(0, 0, 0, 0);"></path><path fill="none" stroke="#000000" d="M38.62365885636537,95.87235209473323C104.3401936377919,86.72337743702364,166.23653911505323,104.57571629242986,266.1450269090599,96.30349326978971" stroke-width="2" marker-end="url(#raphael-marker-endblock55-obj21)" stroke-dasharray="none" style="-webkit-tap-highlight-color: rgba(0, 0, 0, 0);"></path><path fill="#ffffff" stroke="#000000" d="M291.12272944811673,115.87235209473323C320.6876460698379,120.00939518604234,356.16265969387325,111.73530900342412,394.5488067308444,115.87235209473323C393.5743459241627,122.06361080506365,395.52326753752607,136.6395424989146,394.5488067308444,140.2338722617748C350.77343594281615,136.0968291704657,346.185765376646,144.3709153530839,291.12272944811673,140.2338722617748C290.14826864143504,121.2312436379245,292.0971902547984,124.51195099389034,291.12272944811673,115.87235209473323" stroke-width="2" style="-webkit-tap-highlight-color: rgba(0, 0, 0, 0);"></path><rect x="296.12272944811673" y="120.87235209473324" width="93.42607728272765" height="14.361520167041576" rx="0" ry="0" fill="#ffffff" stroke="none" style="-webkit-tap-highlight-color: rgba(0, 0, 0, 0);"></rect><path fill="#000000" stroke="none" d="M307.3227294481168,126.70053892844147C309.14495167033897,127.14498337288592,312.43384055922786,128.21165003955258,311.36717389256114,130.7449833728859C311.1005072258945,130.87831670621927,310.744951670339,131.27831670621924,310.5227294481167,131.6338722617748C308.8782850036723,132.47831670621923,308.30050722589453,133.14498337288592,307.72272944811675,132.7449833728859C307.3227294481168,133.18942781733034,307.18939611478345,133.23387226177482,306.2116183370056,133.3227611506637C306.2116183370056,133.3227611506637,306.3449516703389,133.18942781733034,306.3449516703389,133.18942781733034C306.1671738925612,133.0116500395526,305.8116183370056,133.0116500395526,305.54495167033895,133.18942781733034C305.54495167033895,133.18942781733034,305.6338405592278,133.27831670621924,305.76717389256123,133.36720559510815C304.83384055922784,133.98942781733035,304.61161833700567,133.6338722617748,303.8116183370056,134.0338722617748C303.6338405592278,134.0338722617748,303.50050722589447,133.94498337288593,303.4560627814501,133.81165003955257C303.18939611478345,134.30053892844148,302.5671738925612,133.58942781733037,302.65606278145003,134.30053892844148C301.05606278145,134.47831670621923,298.61161833700567,135.85609448399703,297.5893961147834,134.47831670621923C297.2782850036723,131.7227611506637,297.14495167033897,128.3449833728859,297.7671738925611,125.6338722617748C297.72272944811675,124.78942781733035,296.12272944811673,125.72276115066369,296.12272944811673,124.4338722617748C296.12272944811673,124.07831670621924,296.2116183370056,123.85609448399703,296.3893961147834,123.76720559510814C299.4116183370056,122.38942781733036,306.65606278145003,119.67831670621925,310.2116183370056,122.0338722617748C310.5671738925612,122.56720559510813,310.744951670339,122.92276115066369,310.744951670339,123.14498337288592C310.3893961147834,125.01165003955258,309.3227294481168,125.3227611506637,307.3227294481168,126.70053892844147C307.3227294481168,126.70053892844147,307.3227294481168,126.70053892844147,307.3227294481168,126.70053892844147M299.4560627814501,127.54498337288591C302.65606278145003,126.78942781733035,305.4560627814501,125.81165003955257,307.6338405592278,124.4338722617748C308.5227294481167,123.85609448399703,309.01161833700564,123.41165003955258,309.01161833700564,123.2338722617748C309.05606278145,122.96720559510813,307.6782850036723,122.65609448399702,307.3227294481168,122.70053892844147C304.9227294481167,122.70053892844147,302.1671738925612,123.27831670621924,299.05606278145,124.5227611506637C299.54495167033895,125.45609448399702,299.1005072258945,126.65609448399702,299.4560627814501,127.54498337288591C299.4560627814501,127.54498337288591,299.4560627814501,127.54498337288591,299.4560627814501,127.54498337288591M307.5893961147834,132.7449833728859C307.5893961147834,132.56720559510813,307.72272944811675,132.47831670621923,307.4116183370056,132.52276115066368C307.4116183370056,132.56720559510813,307.4560627814501,132.61165003955256,307.5893961147834,132.7449833728859C307.5893961147834,132.7449833728859,307.5893961147834,132.7449833728859,307.5893961147834,132.7449833728859M305.3227294481168,128.4338722617748C303.8116183370056,128.7449833728859,301.14495167033897,129.50053892844147,299.14495167033897,129.10053892844147C298.8782850036723,129.98942781733035,298.96717389256116,131.58942781733037,298.96717389256116,132.7449833728859C298.96717389256116,134.0338722617748,300.8782850036723,132.78942781733036,301.4560627814501,132.8338722617748C303.5893961147834,132.3449833728859,306.25606278145005,131.7227611506637,308.30050722589453,130.70053892844146C309.18939611478345,130.256094483997,309.72272944811675,129.94498337288593,309.72272944811675,129.58942781733037C309.72272944811675,128.78942781733036,308.25606278145005,128.4338722617748,305.3227294481168,128.4338722617748C305.3227294481168,128.4338722617748,305.3227294481168,128.4338722617748,305.3227294481168,128.4338722617748M304.61161833700567,133.76720559510812C304.8782850036723,133.81165003955257,304.8782850036723,133.67831670621925,304.83384055922784,133.45609448399702C304.7005072258945,133.5449833728859,304.5227294481167,133.5449833728859,304.61161833700567,133.76720559510812C304.61161833700567,133.76720559510812,304.61161833700567,133.76720559510812,304.61161833700567,133.76720559510812M316.9227294481167,128.47831670621923C319.2338405592278,127.41165003955258,321.54495167033895,129.27831670621924,321.54495167033895,131.27831670621924C321.54495167033895,133.90053892844145,318.61161833700555,134.256094483997,316.4782850036722,134.96720559510814C314.1671738925611,134.87831670621927,311.36717389256114,132.7449833728859,312.9227294481167,130.30053892844148C313.9449516703389,129.50053892844147,315.2338405592278,128.7449833728859,316.9227294481167,128.47831670621923C316.9227294481167,128.47831670621923,316.9227294481167,128.47831670621923,316.9227294481167,128.47831670621923M314.12272944811673,131.98942781733035C314.83384055922784,134.38942781733036,319.6782850036723,132.70053892844146,319.9449516703389,130.96720559510814C319.4116183370056,128.3449833728859,314.2116183370056,130.61165003955256,314.12272944811673,131.98942781733035C314.12272944811673,131.98942781733035,314.12272944811673,131.98942781733035,314.12272944811673,131.98942781733035M325.3227294481168,128.4338722617748C328.3893961147834,128.47831670621923,330.7893961147835,128.4338722617748,331.2782850036723,130.7449833728859C331.5005072258946,131.90053892844145,328.12272944811673,133.90053892844145,326.96717389256116,133.85609448399703C326.47828500367234,134.3449833728859,323.0560627814501,134.8338722617748,322.7893961147835,134.8338722617748C322.30050722589453,134.70053892844146,321.6338405592279,134.0338722617748,322.5227294481167,133.76720559510812C323.36717389256125,133.5449833728859,322.43384055922786,132.9227611506637,322.47828500367234,132.21165003955258C322.5227294481167,131.41165003955257,322.96717389256116,130.61165003955256,322.25606278145005,130.12276115066368C321.9893961147834,129.36720559510815,321.9893961147834,129.18942781733034,322.8782850036723,128.70053892844146C323.14495167033897,126.70053892844147,323.6782850036723,124.74498337288591,324.12272944811673,123.18942781733035C324.2116183370057,122.87831670621925,324.47828500367234,122.65609448399702,324.8782850036723,122.52276115066368C325.1005072258945,122.65609448399702,325.3227294481168,123.01165003955258,325.5893961147834,123.76720559510814C325.0560627814501,124.96720559510813,325.01161833700564,126.56720559510813,324.5671738925612,128.0338722617748C324.5671738925612,128.30053892844148,324.83384055922784,128.4338722617748,325.3227294481168,128.4338722617748C325.3227294481168,128.4338722617748,325.3227294481168,128.4338722617748,325.3227294481168,128.4338722617748M325.6338405592279,129.90053892844145C323.8560627814501,129.50053892844147,324.25606278145005,131.27831670621924,323.90050722589456,132.30053892844148C324.25606278145005,132.96720559510814,323.90050722589456,133.41165003955257,324.43384055922786,133.27831670621924C325.76717389256123,132.9227611506637,327.1005072258945,132.47831670621923,328.344951670339,131.85609448399703C330.07828500367236,131.05609448399701,330.5227294481167,130.38942781733036,328.30050722589453,129.98942781733035C327.4116183370056,129.81165003955257,326.30050722589453,129.67831670621925,325.6338405592279,129.90053892844145C325.6338405592279,129.90053892844145,325.6338405592279,129.90053892844145,325.6338405592279,129.90053892844145M343.14495167033897,127.98942781733035C343.5893961147834,126.16720559510813,344.7005072258945,122.38942781733036,346.0338405592279,122.0338722617748C346.2116183370056,122.07831670621924,347.1005072258945,122.87831670621925,346.5227294481167,123.6338722617748C345.7671738925611,124.61165003955257,345.2338405592278,126.16720559510813,344.9227294481167,128.256094483997C346.07828500367225,128.61165003955256,347.14495167033897,127.94498337288591,348.1671738925612,128.47831670621923C348.78939611478336,128.47831670621923,349.14495167033897,128.61165003955256,349.14495167033897,128.87831670621927C349.1005072258945,129.7227611506637,347.18939611478345,129.67831670621925,346.61161833700567,129.90053892844145C346.1671738925612,129.94498337288593,344.5671738925612,129.90053892844145,344.2116183370056,130.3449833728859C343.7671738925611,131.41165003955257,344.0338405592279,133.3227611506637,343.3227294481168,134.70053892844146C342.3893961147834,134.56720559510813,342.1671738925612,134.7449833728859,342.1671738925612,133.81165003955257C342.1671738925612,133.41165003955257,342.25606278145005,132.21165003955258,342.5227294481167,130.21165003955258C341.8560627814501,129.6338722617748,338.9227294481167,130.61165003955256,339.1005072258945,129.0116500395526C339.2782850036723,127.3227611506637,342.25606278145005,129.27831670621924,343.14495167033897,127.98942781733035C343.14495167033897,127.98942781733035,343.14495167033897,127.98942781733035,343.14495167033897,127.98942781733035M352.43384055922786,120.87831670621925C352.9227294481167,120.78942781733035,352.8782850036723,121.72276115066369,352.9227294481167,121.76720559510814C352.43384055922786,124.07831670621924,351.14495167033897,127.67831670621925,350.5671738925612,130.16720559510813C350.30050722589453,131.50053892844147,350.1671738925612,131.81165003955257,350.1671738925612,132.256094483997C351.36717389256114,132.256094483997,355.18939611478334,130.7449833728859,356.5227294481167,130.7449833728859C358.3893961147834,130.7449833728859,357.90050722589444,132.8338722617748,358.25606278145005,134.256094483997C358.25606278145005,134.4338722617748,358.03384055922777,135.0116500395526,357.54495167033895,134.96720559510814C357.72272944811675,135.05609448399701,358.03384055922777,135.10053892844147,357.72272944811675,135.23387226177482C356.65606278145003,135.18942781733034,356.4782850036722,133.7227611506637,356.61161833700555,132.38942781733036C356.5671738925612,132.3449833728859,356.5227294481167,132.256094483997,356.3893961147834,132.16720559510813C354.12272944811673,132.16720559510813,351.50050722589447,133.85609448399703,349.18939611478334,134.4338722617748C348.78939611478336,134.47831670621923,348.5227294481167,133.76720559510812,348.4782850036722,133.41165003955257C349.2338405592278,129.45609448399702,350.2116183370056,127.14498337288592,351.6338405592278,121.67831670621925C351.6338405592278,121.27831670621924,351.90050722589444,120.8338722617748,352.43384055922786,120.87831670621925C352.43384055922786,120.87831670621925,352.43384055922786,120.87831670621925,352.43384055922786,120.87831670621925M361.90050722589444,125.36720559510813C362.2116183370056,126.16720559510813,362.30050722589453,126.38942781733036,361.6782850036723,127.05609448399703C360.65606278145003,126.78942781733035,360.744951670339,126.25609448399702,361.18939611478334,125.45609448399702C361.2782850036723,125.45609448399702,361.54495167033895,125.41165003955258,361.90050722589444,125.36720559510813C361.90050722589444,125.36720559510813,361.90050722589444,125.36720559510813,361.90050722589444,125.36720559510813M360.65606278145003,134.3449833728859C359.8560627814501,133.41165003955257,360.30050722589453,131.10053892844147,360.61161833700555,129.6338722617748C360.9227294481167,129.18942781733034,361.50050722589447,129.27831670621924,361.6338405592278,129.90053892844145C361.5893961147834,131.50053892844147,361.9449516703389,133.10053892844147,361.54495167033895,134.52276115066368C361.18939611478334,134.61165003955256,361.18939611478334,134.52276115066368,360.65606278145003,134.3449833728859C360.65606278145003,134.3449833728859,360.65606278145003,134.3449833728859,360.65606278145003,134.3449833728859M368.07828500367225,128.61165003955256C369.72272944811675,128.87831670621927,370.83384055922784,131.0116500395526,370.83384055922784,133.5449833728859C370.83384055922784,134.96720559510814,370.12272944811673,134.65609448399704,369.45606278145,134.30053892844148C368.65606278145003,132.96720559510814,369.2338405592278,132.30053892844148,368.4782850036722,130.52276115066368C366.83384055922784,129.94498337288593,365.32272944811666,132.96720559510814,364.3893961147834,133.41165003955257C363.50050722589447,133.27831670621924,362.65606278145003,131.67831670621925,363.45606278145,130.65609448399704C363.54495167033895,130.12276115066368,363.5893961147834,129.98942781733035,363.9449516703389,129.3227611506637C364.4782850036722,128.96720559510814,364.83384055922784,129.81165003955257,365.2338405592278,129.85609448399703C365.2338405592278,129.85609448399703,368.07828500367225,128.61165003955256,368.07828500367225,128.61165003955256M373.9449516703389,131.7227611506637C375.4116183370056,132.87831670621927,379.01161833700564,133.36720559510815,380.83384055922784,134.47831670621923C381.18939611478345,134.30053892844148,381.8116183370056,134.38942781733036,381.6782850036723,133.7227611506637C381.6782850036723,133.5449833728859,381.14495167033897,133.23387226177482,380.344951670339,132.65609448399704C378.744951670339,131.5449833728859,377.9449516703389,131.67831670621925,375.9449516703389,131.18942781733034C376.5671738925612,130.256094483997,381.2338405592278,130.61165003955256,380.5227294481167,128.38942781733036C380.5227294481167,128.38942781733036,379.8116183370056,128.07831670621925,379.8116183370056,128.07831670621925C379.8116183370056,128.07831670621925,374.344951670339,130.16720559510813,374.344951670339,130.16720559510813C374.344951670339,130.16720559510813,375.4560627814501,126.0338722617748,375.4560627814501,126.0338722617748C375.3227294481168,125.36720559510813,376.1671738925612,123.85609448399703,376.25606278145005,122.4338722617748C376.30050722589453,121.76720559510814,375.3227294481168,121.81165003955257,375.14495167033897,122.30053892844147C373.76717389256123,125.94498337288591,372.96717389256116,129.76720559510812,371.8116183370056,133.7227611506637C371.90050722589456,133.81165003955257,372.78939611478336,135.05609448399701,373.01161833700564,134.16720559510813C373.1005072258945,133.94498337288593,373.18939611478345,133.76720559510812,373.4116183370056,133.67831670621925C373.5893961147834,132.96720559510814,373.5893961147834,133.0116500395526,373.9449516703389,131.7227611506637C373.9449516703389,131.7227611506637,373.9449516703389,131.7227611506637,373.9449516703389,131.7227611506637M388.65606278145003,127.94498337288591C389.50050722589447,127.98942781733035,389.8560627814501,129.0116500395526,389.2338405592278,129.36720559510815C389.0560627814501,129.41165003955257,388.25606278145005,129.5449833728859,386.8782850036723,129.67831670621925C386.1671738925612,130.0338722617748,385.90050722589456,129.58942781733037,385.14495167033897,130.07831670621925C386.1671738925612,131.0116500395526,389.1005072258945,130.78942781733036,389.4116183370056,132.8338722617748C388.83384055922784,133.90053892844145,385.6338405592278,134.38942781733036,383.90050722589456,134.70053892844146C383.50050722589447,134.56720559510813,383.1005072258945,134.56720559510813,382.7005072258945,134.70053892844146C382.43384055922786,134.52276115066368,381.76717389256123,133.98942781733035,382.344951670339,133.58942781733037C383.6782850036723,133.3227611506637,386.0338405592279,133.0116500395526,386.8782850036723,132.52276115066368C386.12272944811673,131.81165003955257,383.3227294481168,131.05609448399701,382.5671738925612,130.38942781733036C382.43384055922786,130.30053892844148,382.3893961147834,130.07831670621925,382.3893961147834,129.7227611506637C382.12272944811673,129.45609448399702,382.5227294481167,129.14498337288592,383.0560627814501,128.9227611506637C384.0338405592279,128.52276115066368,387.2338405592278,127.90053892844146,388.65606278145003,127.94498337288591C388.65606278145003,127.94498337288591,388.65606278145003,127.94498337288591,388.65606278145003,127.94498337288591" style="-webkit-tap-highlight-color: rgba(0, 0, 0, 0);"></path><rect x="79.29541637446329" y="154.30380293860514" width="151.1555555555555" height="21.860138646339323" rx="0" ry="0" fill="#ffffff" stroke="none" style="-webkit-tap-highlight-color: rgba(0, 0, 0, 0);"></rect><path fill="#000000" stroke="none" d="M81.65097193001884,156.26532310564664C83.16208304112993,156.7097675500911,81.47319415224106,160.93198977231333,81.29541637446329,161.95421199453557C81.29541637446329,161.95421199453557,80.2287497077966,167.55421199453554,80.2287497077966,167.55421199453554C80.13986081890772,167.64310088342444,80.09541637446327,167.59865643898002,79.82874970779662,167.8208786612022C79.29541637446329,167.3764342167578,79.29541637446329,167.15421199453556,79.29541637446329,165.73198977231334C79.29541637446329,161.59865643898002,79.69541637446326,158.79865643898,80.53986081890773,157.3764342167578C80.98430526335216,156.6208786612022,81.38430526335216,156.26532310564664,81.65097193001884,156.26532310564664C81.65097193001884,156.26532310564664,81.65097193001884,156.26532310564664,81.65097193001884,156.26532310564664M95.82874970779662,165.59865643898002C96.27319415224105,165.77643421675776,98.45097193001882,167.4208786612022,98.7176385966855,167.8208786612022C98.76208304112996,168.13198977231332,98.45097193001882,168.57643421675778,98.18430526335217,168.57643421675778C98.18430526335217,168.57643421675778,95.51763859668549,167.24310088342446,95.51763859668549,167.24310088342446C94.53986081890773,167.3319897723133,93.65097193001884,168.1764342167578,92.6287497077966,168.0875453278689C91.16208304112993,168.26532310564664,89.60652748557439,165.10976755009108,91.96208304112994,164.48754532786887C93.78430526335217,163.28754532786888,96.22874970779662,162.75421199453552,96.85097193001883,164.8875453278689C96.85097193001883,165.15421199453556,96.67319415224105,165.4208786612022,96.36208304112995,165.59865643898002C94.89541637446328,164.48754532786887,93.38430526335216,165.3764342167578,92.45097193001882,166.13198977231332C92.89541637446328,166.84310088342443,95.16208304112993,165.3319897723133,95.82874970779662,165.59865643898002C95.82874970779662,165.59865643898002,95.82874970779662,165.59865643898002,95.82874970779662,165.59865643898002M114.49541637446328,165.46532310564663C114.40652748557437,166.39865643897997,114.49541637446328,167.99865643898,114.6287497077966,168.7097675500911C113.87319415224104,168.84310088342443,113.29541637446329,168.66532310564668,113.20652748557438,167.99865643898C112.85097193001883,167.68754532786886,112.98430526335216,166.04310088342442,112.6287497077966,164.8875453278689C111.07319415224106,165.02087866120223,108.98430526335216,167.06532310564666,107.69541637446326,167.99865643898C107.16208304112993,168.35421199453555,105.91763859668549,168.1764342167578,105.96208304112994,167.3319897723133C105.96208304112994,167.3319897723133,106.05097193001882,164.84310088342443,106.05097193001882,164.84310088342443C106.0065274855744,164.26532310564664,106.2287497077966,163.59865643898002,105.69541637446326,163.55421199453554C104.13986081890772,163.9097675500911,102.18430526335217,166.75421199453552,100.58430526335215,167.4208786612022C100.3176385966855,167.5097675500911,99.69541637446326,166.6208786612022,99.65097193001884,166.44310088342445C99.69541637446326,165.55421199453554,100.27319415224105,161.77643421675776,101.38430526335216,163.59865643898002C101.38430526335216,163.59865643898002,101.73986081890772,164.26532310564664,101.73986081890772,164.26532310564664C102.49541637446328,163.64310088342444,104.93986081890773,161.77643421675776,105.87319415224104,161.86532310564667C107.07319415224106,161.99865643898,108.05097193001882,163.64310088342444,107.78430526335217,165.4208786612022C108.85097193001883,165.3319897723133,110.7176385966855,162.97643421675775,113.29541637446329,163.06532310564666C113.78430526335217,163.68754532786886,114.53986081890773,164.0875453278689,114.49541637446328,165.46532310564663C114.49541637446328,165.46532310564663,114.49541637446328,165.46532310564663,114.49541637446328,165.46532310564663M129.20652748557438,163.77643421675776C130.5398608189077,164.97643421675775,130.13986081890772,167.10976755009108,130.5398608189077,168.97643421675775C130.00652748557437,170.35421199453555,130.05097193001882,171.9097675500911,128.9398608189077,173.55421199453554C127.51763859668549,175.59865643898002,124.27319415224105,177.24310088342446,121.51763859668549,175.28754532786888C120.13986081890772,174.35421199453555,119.33986081890771,173.99865643898,119.2509719300188,171.95421199453557C119.16208304112993,170.30976755009112,122.67319415224105,169.73198977231334,124.6287497077966,169.4208786612022C126.27319415224105,169.15421199453556,127.65097193001881,168.97643421675775,128.85097193001883,168.93198977231333C129.16208304112993,168.66532310564668,128.98430526335216,167.5097675500911,129.0287497077966,166.8875453278689C129.0287497077966,166.8875453278689,128.98430526335216,166.93198977231333,128.98430526335216,166.97643421675775C128.98430526335216,166.1764342167578,128.76208304112993,165.59865643898002,128.36208304112992,164.97643421675775C126.40652748557437,165.19865643897998,124.85097193001883,165.86532310564667,124.18430526335214,164.1764342167578C124.3176385966855,161.77643421675776,127.42874970779661,161.77643421675776,129.73986081890772,161.95421199453557C130.27319415224105,162.26532310564664,130.27319415224105,162.53198977231335,129.9176385966855,163.06532310564666C128.58430526335215,162.57643421675778,126.5398608189077,163.4208786612022,125.91763859668549,163.95421199453557C126.9398608189077,164.0875453278689,128.13986081890772,163.24310088342446,129.20652748557438,163.77643421675776C129.20652748557438,163.77643421675776,129.20652748557438,163.77643421675776,129.20652748557438,163.77643421675776M121.82874970779659,173.46532310564663C124.49541637446328,175.8208786612022,129.29541637446326,173.5097675500911,128.89541637446325,169.64310088342444C126.80652748557438,169.3319897723133,124.76208304112993,170.7097675500911,122.58430526335215,170.97643421675775C122.05097193001882,171.28754532786888,120.58430526335215,171.8208786612022,120.71763859668548,172.26532310564664C120.71763859668548,172.7097675500911,121.07319415224103,173.10976755009108,121.82874970779659,173.46532310564663C121.82874970779659,173.46532310564663,121.82874970779659,173.46532310564663,121.82874970779659,173.46532310564663M136.49541637446328,161.9097675500911C138.80652748557438,160.84310088342443,141.11763859668548,162.7097675500911,141.11763859668548,164.7097675500911C141.11763859668548,167.3319897723133,138.18430526335214,167.68754532786886,136.05097193001882,168.39865643897997C133.73986081890772,168.30976755009112,130.9398608189077,166.1764342167578,132.49541637446328,163.73198977231334C133.5176385966855,162.93198977231333,134.80652748557438,162.1764342167578,136.49541637446328,161.9097675500911C136.49541637446328,161.9097675500911,136.49541637446328,161.9097675500911,136.49541637446328,161.9097675500911M133.69541637446326,165.4208786612022C134.40652748557437,167.8208786612022,139.2509719300188,166.13198977231332,139.5176385966855,164.39865643897997C138.98430526335216,161.77643421675776,133.78430526335217,164.04310088342442,133.69541637446326,165.4208786612022C133.69541637446326,165.4208786612022,133.69541637446326,165.4208786612022,133.69541637446326,165.4208786612022M146.13986081890772,161.9097675500911C148.45097193001882,160.84310088342443,150.76208304112993,162.7097675500911,150.76208304112993,164.7097675500911C150.76208304112993,167.3319897723133,147.8287497077966,167.68754532786886,145.69541637446326,168.39865643897997C143.38430526335216,168.30976755009112,140.58430526335215,166.1764342167578,142.13986081890772,163.73198977231334C143.16208304112993,162.93198977231333,144.45097193001882,162.1764342167578,146.13986081890772,161.9097675500911C146.13986081890772,161.9097675500911,146.13986081890772,161.9097675500911,146.13986081890772,161.9097675500911M143.3398608189077,165.4208786612022C144.05097193001882,167.8208786612022,148.89541637446325,166.13198977231332,149.16208304112993,164.39865643897997C148.6287497077966,161.77643421675776,143.4287497077966,164.04310088342442,143.3398608189077,165.4208786612022C143.3398608189077,165.4208786612022,143.3398608189077,165.4208786612022,143.3398608189077,165.4208786612022M160.9398608189077,159.15421199453556C160.9398608189077,157.59865643898002,160.18430526335214,154.22087866120222,162.00652748557437,154.97643421675775C162.3176385966855,158.79865643898,161.9176385966855,160.26532310564664,162.00652748557437,163.73198977231334C161.8287497077966,163.8208786612022,161.6509719300188,164.66532310564668,161.20652748557438,164.44310088342445C158.45097193001882,164.13198977231332,154.36208304112992,164.0875453278689,152.98430526335216,165.73198977231334C153.25097193001884,166.48754532786887,154.2287497077966,166.8875453278689,155.25097193001884,166.8875453278689C155.96208304112994,166.8875453278689,159.69541637446326,166.22087866120222,161.11763859668548,166.0875453278689C161.4287497077966,166.30976755009112,160.85097193001883,166.97643421675775,160.67319415224105,167.06532310564666C159.6065274855744,167.4208786612022,155.25097193001884,168.93198977231333,153.4287497077966,168.1764342167578C152.00652748557437,167.95421199453557,150.67319415224105,165.8208786612022,151.8287497077966,164.6208786612022C153.38430526335216,162.97643421675775,157.07319415224106,162.57643421675778,160.6287497077966,162.7097675500911C160.67319415224105,161.73198977231334,160.9398608189077,160.53198977231335,160.9398608189077,159.15421199453556C160.9398608189077,159.15421199453556,160.9398608189077,159.15421199453556,160.9398608189077,159.15421199453556M174.49541637446328,161.4208786612022C174.93986081890773,159.59865643898002,176.05097193001882,155.8208786612022,177.3843052633522,155.46532310564663C177.56208304112994,155.5097675500911,178.45097193001885,156.30976755009112,177.87319415224107,157.06532310564666C177.11763859668548,158.04310088342442,176.58430526335218,159.59865643898002,176.27319415224105,161.68754532786886C177.4287497077966,162.04310088342442,178.49541637446328,161.3764342167578,179.51763859668552,161.9097675500911C180.13986081890772,161.9097675500911,180.49541637446328,162.04310088342442,180.49541637446328,162.30976755009112C180.45097193001885,163.15421199453556,178.5398608189077,163.10976755009108,177.96208304112997,163.3319897723133C177.51763859668552,163.3764342167578,175.9176385966855,163.3319897723133,175.56208304112994,163.77643421675776C175.1176385966855,164.84310088342443,175.38430526335216,166.75421199453552,174.67319415224105,168.13198977231332C173.73986081890772,167.99865643898,173.51763859668552,168.1764342167578,173.51763859668552,167.24310088342446C173.51763859668552,166.84310088342443,173.6065274855744,165.64310088342444,173.87319415224107,163.64310088342444C173.20652748557438,163.06532310564666,170.27319415224105,164.04310088342442,170.45097193001882,162.44310088342445C170.6287497077966,160.75421199453552,173.6065274855744,162.7097675500911,174.49541637446328,161.4208786612022C174.49541637446328,161.4208786612022,174.49541637446328,161.4208786612022,174.49541637446328,161.4208786612022M183.78430526335217,154.30976755009112C184.27319415224105,154.22087866120222,184.22874970779662,155.15421199453556,184.27319415224105,155.19865643897998C183.78430526335217,157.5097675500911,182.49541637446328,161.10976755009108,181.9176385966855,163.59865643898002C181.65097193001884,164.93198977231333,181.51763859668552,165.24310088342446,181.51763859668552,165.68754532786886C182.7176385966855,165.68754532786886,186.5398608189077,164.1764342167578,187.87319415224107,164.1764342167578C189.7398608189077,164.1764342167578,189.2509719300188,166.26532310564664,189.60652748557436,167.68754532786886C189.60652748557436,167.86532310564667,189.38430526335213,168.44310088342445,188.89541637446325,168.39865643897997C189.07319415224106,168.48754532786887,189.38430526335213,168.53198977231335,189.07319415224106,168.66532310564668C188.0065274855744,168.6208786612022,187.8287497077966,167.15421199453556,187.96208304112992,165.8208786612022C187.9176385966855,165.77643421675776,187.87319415224107,165.68754532786886,187.7398608189077,165.59865643898002C185.47319415224104,165.59865643898002,182.85097193001883,167.28754532786888,180.5398608189077,167.86532310564667C180.13986081890772,167.9097675500911,179.87319415224107,167.19865643897998,179.8287497077966,166.84310088342443C180.58430526335218,162.8875453278689,181.56208304112994,160.57643421675778,182.98430526335216,155.10976755009108C182.98430526335216,154.7097675500911,183.2509719300188,154.26532310564664,183.78430526335217,154.30976755009112C183.78430526335217,154.30976755009112,183.78430526335217,154.30976755009112,183.78430526335217,154.30976755009112M196.0065274855744,165.59865643898002C196.45097193001885,165.77643421675776,198.6287497077966,167.4208786612022,198.89541637446325,167.8208786612022C198.93986081890773,168.13198977231332,198.6287497077966,168.57643421675778,198.36208304112995,168.57643421675778C198.36208304112995,168.57643421675778,195.69541637446326,167.24310088342446,195.69541637446326,167.24310088342446C194.7176385966855,167.3319897723133,193.8287497077966,168.1764342167578,192.8065274855744,168.0875453278689C191.3398608189077,168.26532310564664,189.78430526335217,165.10976755009108,192.13986081890772,164.48754532786887C193.96208304112992,163.28754532786888,196.40652748557437,162.75421199453552,197.02874970779663,164.8875453278689C197.02874970779663,165.15421199453556,196.85097193001883,165.4208786612022,196.5398608189077,165.59865643898002C195.07319415224106,164.48754532786887,193.56208304112994,165.3764342167578,192.6287497077966,166.13198977231332C193.07319415224106,166.84310088342443,195.3398608189077,165.3319897723133,196.0065274855744,165.59865643898002C196.0065274855744,165.59865643898002,196.0065274855744,165.59865643898002,196.0065274855744,165.59865643898002M204.58430526335218,162.04310088342442C206.22874970779662,162.30976755009112,207.3398608189077,164.44310088342445,207.3398608189077,166.97643421675775C207.3398608189077,168.39865643897997,206.6287497077966,168.0875453278689,205.96208304112992,167.73198977231334C205.16208304112996,166.39865643897997,205.73986081890774,165.73198977231334,204.98430526335216,163.95421199453557C203.3398608189077,163.3764342167578,201.8287497077966,166.39865643897997,200.89541637446325,166.84310088342443C200.0065274855744,166.7097675500911,199.16208304112996,165.10976755009108,199.96208304112992,164.0875453278689C200.05097193001882,163.55421199453554,200.0954163744633,163.4208786612022,200.45097193001885,162.75421199453552C200.98430526335216,162.39865643897997,201.3398608189077,163.24310088342446,201.73986081890774,163.28754532786888C201.73986081890774,163.28754532786888,204.58430526335218,162.04310088342442,204.58430526335218,162.04310088342442M210.4509719300188,165.15421199453556C211.9176385966855,166.30976755009112,215.51763859668546,166.79865643898,217.3398608189077,167.9097675500911C217.69541637446326,167.73198977231334,218.31763859668547,167.8208786612022,218.18430526335214,167.15421199453556C218.18430526335214,166.97643421675775,217.65097193001878,166.66532310564668,216.85097193001883,166.0875453278689C215.2509719300188,164.97643421675775,214.4509719300188,165.10976755009108,212.4509719300188,164.6208786612022C213.07319415224106,163.68754532786886,217.7398608189077,164.04310088342442,217.02874970779658,161.8208786612022C217.02874970779658,161.8208786612022,216.31763859668547,161.5097675500911,216.31763859668547,161.5097675500911C216.31763859668547,161.5097675500911,210.85097193001883,163.59865643898002,210.85097193001883,163.59865643898002C210.85097193001883,163.59865643898002,211.96208304112992,159.46532310564663,211.96208304112992,159.46532310564663C211.8287497077966,158.79865643898,212.67319415224102,157.28754532786888,212.76208304112993,155.86532310564667C212.80652748557435,155.19865643897998,211.8287497077966,155.24310088342446,211.65097193001878,155.73198977231334C210.27319415224105,159.3764342167578,209.47319415224104,163.19865643897998,208.31763859668547,167.15421199453556C208.40652748557437,167.24310088342446,209.29541637446323,168.48754532786887,209.51763859668546,167.59865643898002C209.60652748557436,167.3764342167578,209.69541637446326,167.19865643897998,209.9176385966855,167.10976755009108C210.09541637446324,166.39865643897997,210.09541637446324,166.44310088342445,210.4509719300188,165.15421199453556C210.4509719300188,165.15421199453556,210.4509719300188,165.15421199453556,210.4509719300188,165.15421199453556M225.16208304112996,161.3764342167578C226.0065274855744,161.4208786612022,226.36208304112995,162.44310088342445,225.73986081890774,162.79865643898C225.56208304113,162.84310088342443,224.76208304112998,162.97643421675775,223.3843052633522,163.10976755009108C222.67319415224108,163.46532310564663,222.40652748557443,163.02087866120223,221.65097193001884,163.5097675500911C222.67319415224108,164.44310088342445,225.60652748557442,164.22087866120222,225.91763859668555,166.26532310564664C225.33986081890777,167.3319897723133,222.13986081890772,167.8208786612022,220.40652748557443,168.13198977231332C220.0065274855744,167.99865643898,219.60652748557442,167.99865643898,219.20652748557444,168.13198977231332C218.93986081890773,167.95421199453557,218.2731941522411,167.4208786612022,218.8509719300189,167.02087866120223C220.1843052633522,166.75421199453552,222.53986081890775,166.44310088342445,223.3843052633522,165.95421199453557C222.62874970779666,165.24310088342446,219.82874970779665,164.48754532786887,219.07319415224106,163.8208786612022C218.93986081890773,163.73198977231334,218.8954163744633,163.5097675500911,218.8954163744633,163.15421199453556C218.62874970779666,162.8875453278689,219.02874970779663,162.57643421675778,219.56208304113,162.35421199453555C220.53986081890775,161.95421199453557,223.73986081890774,161.3319897723133,225.16208304112996,161.3764342167578C225.16208304112996,161.3764342167578,225.16208304112996,161.3764342167578,225.16208304112996,161.3764342167578M229.60652748557436,154.48754532786887C230.00652748557434,154.6208786612022,230.40652748557437,154.97643421675775,230.4509719300188,155.55421199453554C229.65097193001878,158.79865643898,229.56208304112994,160.48754532786887,228.80652748557435,164.1764342167578C228.80652748557435,164.6208786612022,228.89541637446325,165.68754532786886,228.27319415224105,165.68754532786886C227.7398608189077,165.68754532786886,227.47319415224104,165.28754532786888,227.47319415224104,164.44310088342445C227.47319415224104,160.66532310564668,228.49541637446322,158.39865643897997,229.1620830411299,154.93198977231333C229.20652748557438,154.6208786612022,229.3398608189077,154.48754532786887,229.60652748557436,154.48754532786887C229.60652748557436,154.48754532786887,229.60652748557436,154.48754532786887,229.60652748557436,154.48754532786887M227.7843052633521,166.75421199453552C228.4509719300188,166.7097675500911,229.02874970779658,168.26532310564664,228.00652748557434,168.30976755009112C227.51763859668546,168.26532310564664,226.31763859668547,166.7097675500911,227.7843052633521,166.75421199453552C227.7843052633521,166.75421199453552,227.7843052633521,166.75421199453552,227.7843052633521,166.75421199453552" style="-webkit-tap-highlight-color: rgba(0, 0, 0, 0);"></path><path fill="none" stroke="#000000" d="M271.12272944811673,182.09401090811414C177.03275116388355,191.30201853296617,208.3933679666373,173.15914120475125,43.61918175548961,181.82627439571695" stroke-width="2" marker-end="url(#raphael-marker-endblock55-obj27)" stroke-dasharray="6,2" style="-webkit-tap-highlight-color: rgba(0, 0, 0, 0);"></path></svg>